<?xml version="1.0" encoding="utf-8" standalone="no"?>
<!DOCTYPE svg PUBLIC "-//W3C//DTD SVG 1.1//EN"
  "http://www.w3.org/Graphics/SVG/1.1/DTD/svg11.dtd">
<svg height="345.6pt" version="1.1" viewBox="0 0 460.8 345.6" width="460.8pt" xmlns="http://www.w3.org/2000/svg" xmlns:xlink="http://www.w3.org/1999/xlink">
 <metadata>
  <rdf:RDF xmlns:cc="http://creativecommons.org/ns#" xmlns:dc="http://purl.org/dc/elements/1.1/" xmlns:rdf="http://www.w3.org/1999/02/22-rdf-syntax-ns#">
   <cc:Work>
    <dc:type rdf:resource="http://purl.org/dc/dcmitype/StillImage"/>
    <dc:date>2021-04-08T20:48:11.742874</dc:date>
    <dc:format>image/svg+xml</dc:format>
    <dc:creator>
     <cc:Agent>
      <dc:title>Matplotlib v3.4.0, https://matplotlib.org/</dc:title>
     </cc:Agent>
    </dc:creator>
   </cc:Work>
  </rdf:RDF>
 </metadata>
 <defs>
  <style type="text/css">*{stroke-linecap:butt;stroke-linejoin:round;}</style>
 </defs>
 <g id="figure_1">
  <g id="patch_1">
   <path d="M 0 345.6 
L 460.8 345.6 
L 460.8 0 
L 0 0 
z
" style="fill:#ffffff;"/>
  </g>
  <g id="axes_1">
   <g id="patch_2">
    <path d="M 57.6 162.432 
L 414.72 162.432 
L 414.72 41.472 
L 57.6 41.472 
z
" style="fill:#ffffff;"/>
   </g>
   <g id="matplotlib.axis_1">
    <g id="xtick_1">
     <g id="line2d_1">
      <defs>
       <path d="M 0 0 
L 0 3.5 
" id="m12c09d28bd" style="stroke:#000000;stroke-width:0.8;"/>
      </defs>
      <g>
       <use style="stroke:#000000;stroke-width:0.8;" x="73.832727" xlink:href="#m12c09d28bd" y="162.432"/>
      </g>
     </g>
     <g id="text_1">
      <!-- 0 -->
      <g transform="translate(70.651477 177.030437)scale(0.1 -0.1)">
       <defs>
        <path d="M 2034 4250 
Q 1547 4250 1301 3770 
Q 1056 3291 1056 2328 
Q 1056 1369 1301 889 
Q 1547 409 2034 409 
Q 2525 409 2770 889 
Q 3016 1369 3016 2328 
Q 3016 3291 2770 3770 
Q 2525 4250 2034 4250 
z
M 2034 4750 
Q 2819 4750 3233 4129 
Q 3647 3509 3647 2328 
Q 3647 1150 3233 529 
Q 2819 -91 2034 -91 
Q 1250 -91 836 529 
Q 422 1150 422 2328 
Q 422 3509 836 4129 
Q 1250 4750 2034 4750 
z
" id="DejaVuSans-30" transform="scale(0.015625)"/>
       </defs>
       <use xlink:href="#DejaVuSans-30"/>
      </g>
     </g>
    </g>
    <g id="xtick_2">
     <g id="line2d_2">
      <g>
       <use style="stroke:#000000;stroke-width:0.8;" x="117.235941" xlink:href="#m12c09d28bd" y="162.432"/>
      </g>
     </g>
     <g id="text_2">
      <!-- 2 -->
      <g transform="translate(114.054691 177.030437)scale(0.1 -0.1)">
       <defs>
        <path d="M 1228 531 
L 3431 531 
L 3431 0 
L 469 0 
L 469 531 
Q 828 903 1448 1529 
Q 2069 2156 2228 2338 
Q 2531 2678 2651 2914 
Q 2772 3150 2772 3378 
Q 2772 3750 2511 3984 
Q 2250 4219 1831 4219 
Q 1534 4219 1204 4116 
Q 875 4013 500 3803 
L 500 4441 
Q 881 4594 1212 4672 
Q 1544 4750 1819 4750 
Q 2544 4750 2975 4387 
Q 3406 4025 3406 3419 
Q 3406 3131 3298 2873 
Q 3191 2616 2906 2266 
Q 2828 2175 2409 1742 
Q 1991 1309 1228 531 
z
" id="DejaVuSans-32" transform="scale(0.015625)"/>
       </defs>
       <use xlink:href="#DejaVuSans-32"/>
      </g>
     </g>
    </g>
    <g id="xtick_3">
     <g id="line2d_3">
      <g>
       <use style="stroke:#000000;stroke-width:0.8;" x="160.639154" xlink:href="#m12c09d28bd" y="162.432"/>
      </g>
     </g>
     <g id="text_3">
      <!-- 4 -->
      <g transform="translate(157.457904 177.030437)scale(0.1 -0.1)">
       <defs>
        <path d="M 2419 4116 
L 825 1625 
L 2419 1625 
L 2419 4116 
z
M 2253 4666 
L 3047 4666 
L 3047 1625 
L 3713 1625 
L 3713 1100 
L 3047 1100 
L 3047 0 
L 2419 0 
L 2419 1100 
L 313 1100 
L 313 1709 
L 2253 4666 
z
" id="DejaVuSans-34" transform="scale(0.015625)"/>
       </defs>
       <use xlink:href="#DejaVuSans-34"/>
      </g>
     </g>
    </g>
    <g id="xtick_4">
     <g id="line2d_4">
      <g>
       <use style="stroke:#000000;stroke-width:0.8;" x="204.042367" xlink:href="#m12c09d28bd" y="162.432"/>
      </g>
     </g>
     <g id="text_4">
      <!-- 6 -->
      <g transform="translate(200.861117 177.030437)scale(0.1 -0.1)">
       <defs>
        <path d="M 2113 2584 
Q 1688 2584 1439 2293 
Q 1191 2003 1191 1497 
Q 1191 994 1439 701 
Q 1688 409 2113 409 
Q 2538 409 2786 701 
Q 3034 994 3034 1497 
Q 3034 2003 2786 2293 
Q 2538 2584 2113 2584 
z
M 3366 4563 
L 3366 3988 
Q 3128 4100 2886 4159 
Q 2644 4219 2406 4219 
Q 1781 4219 1451 3797 
Q 1122 3375 1075 2522 
Q 1259 2794 1537 2939 
Q 1816 3084 2150 3084 
Q 2853 3084 3261 2657 
Q 3669 2231 3669 1497 
Q 3669 778 3244 343 
Q 2819 -91 2113 -91 
Q 1303 -91 875 529 
Q 447 1150 447 2328 
Q 447 3434 972 4092 
Q 1497 4750 2381 4750 
Q 2619 4750 2861 4703 
Q 3103 4656 3366 4563 
z
" id="DejaVuSans-36" transform="scale(0.015625)"/>
       </defs>
       <use xlink:href="#DejaVuSans-36"/>
      </g>
     </g>
    </g>
    <g id="xtick_5">
     <g id="line2d_5">
      <g>
       <use style="stroke:#000000;stroke-width:0.8;" x="247.445581" xlink:href="#m12c09d28bd" y="162.432"/>
      </g>
     </g>
     <g id="text_5">
      <!-- 8 -->
      <g transform="translate(244.264331 177.030437)scale(0.1 -0.1)">
       <defs>
        <path d="M 2034 2216 
Q 1584 2216 1326 1975 
Q 1069 1734 1069 1313 
Q 1069 891 1326 650 
Q 1584 409 2034 409 
Q 2484 409 2743 651 
Q 3003 894 3003 1313 
Q 3003 1734 2745 1975 
Q 2488 2216 2034 2216 
z
M 1403 2484 
Q 997 2584 770 2862 
Q 544 3141 544 3541 
Q 544 4100 942 4425 
Q 1341 4750 2034 4750 
Q 2731 4750 3128 4425 
Q 3525 4100 3525 3541 
Q 3525 3141 3298 2862 
Q 3072 2584 2669 2484 
Q 3125 2378 3379 2068 
Q 3634 1759 3634 1313 
Q 3634 634 3220 271 
Q 2806 -91 2034 -91 
Q 1263 -91 848 271 
Q 434 634 434 1313 
Q 434 1759 690 2068 
Q 947 2378 1403 2484 
z
M 1172 3481 
Q 1172 3119 1398 2916 
Q 1625 2713 2034 2713 
Q 2441 2713 2670 2916 
Q 2900 3119 2900 3481 
Q 2900 3844 2670 4047 
Q 2441 4250 2034 4250 
Q 1625 4250 1398 4047 
Q 1172 3844 1172 3481 
z
" id="DejaVuSans-38" transform="scale(0.015625)"/>
       </defs>
       <use xlink:href="#DejaVuSans-38"/>
      </g>
     </g>
    </g>
    <g id="xtick_6">
     <g id="line2d_6">
      <g>
       <use style="stroke:#000000;stroke-width:0.8;" x="290.848794" xlink:href="#m12c09d28bd" y="162.432"/>
      </g>
     </g>
     <g id="text_6">
      <!-- 10 -->
      <g transform="translate(284.486294 177.030437)scale(0.1 -0.1)">
       <defs>
        <path d="M 794 531 
L 1825 531 
L 1825 4091 
L 703 3866 
L 703 4441 
L 1819 4666 
L 2450 4666 
L 2450 531 
L 3481 531 
L 3481 0 
L 794 0 
L 794 531 
z
" id="DejaVuSans-31" transform="scale(0.015625)"/>
       </defs>
       <use xlink:href="#DejaVuSans-31"/>
       <use x="63.623047" xlink:href="#DejaVuSans-30"/>
      </g>
     </g>
    </g>
    <g id="xtick_7">
     <g id="line2d_7">
      <g>
       <use style="stroke:#000000;stroke-width:0.8;" x="334.252007" xlink:href="#m12c09d28bd" y="162.432"/>
      </g>
     </g>
     <g id="text_7">
      <!-- 12 -->
      <g transform="translate(327.889507 177.030437)scale(0.1 -0.1)">
       <use xlink:href="#DejaVuSans-31"/>
       <use x="63.623047" xlink:href="#DejaVuSans-32"/>
      </g>
     </g>
    </g>
    <g id="xtick_8">
     <g id="line2d_8">
      <g>
       <use style="stroke:#000000;stroke-width:0.8;" x="377.655221" xlink:href="#m12c09d28bd" y="162.432"/>
      </g>
     </g>
     <g id="text_8">
      <!-- 14 -->
      <g transform="translate(371.292721 177.030437)scale(0.1 -0.1)">
       <use xlink:href="#DejaVuSans-31"/>
       <use x="63.623047" xlink:href="#DejaVuSans-34"/>
      </g>
     </g>
    </g>
   </g>
   <g id="matplotlib.axis_2">
    <g id="ytick_1">
     <g id="line2d_9">
      <defs>
       <path d="M 0 0 
L -3.5 0 
" id="m19a6fca343" style="stroke:#000000;stroke-width:0.8;"/>
      </defs>
      <g>
       <use style="stroke:#000000;stroke-width:0.8;" x="57.6" xlink:href="#m19a6fca343" y="148.963081"/>
      </g>
     </g>
     <g id="text_9">
      <!-- 100 -->
      <g transform="translate(31.5125 152.7623)scale(0.1 -0.1)">
       <use xlink:href="#DejaVuSans-31"/>
       <use x="63.623047" xlink:href="#DejaVuSans-30"/>
       <use x="127.246094" xlink:href="#DejaVuSans-30"/>
      </g>
     </g>
    </g>
    <g id="ytick_2">
     <g id="line2d_10">
      <g>
       <use style="stroke:#000000;stroke-width:0.8;" x="57.6" xlink:href="#m19a6fca343" y="114.965448"/>
      </g>
     </g>
     <g id="text_10">
      <!-- 200 -->
      <g transform="translate(31.5125 118.764667)scale(0.1 -0.1)">
       <use xlink:href="#DejaVuSans-32"/>
       <use x="63.623047" xlink:href="#DejaVuSans-30"/>
       <use x="127.246094" xlink:href="#DejaVuSans-30"/>
      </g>
     </g>
    </g>
    <g id="ytick_3">
     <g id="line2d_11">
      <g>
       <use style="stroke:#000000;stroke-width:0.8;" x="57.6" xlink:href="#m19a6fca343" y="80.967815"/>
      </g>
     </g>
     <g id="text_11">
      <!-- 300 -->
      <g transform="translate(31.5125 84.767034)scale(0.1 -0.1)">
       <defs>
        <path d="M 2597 2516 
Q 3050 2419 3304 2112 
Q 3559 1806 3559 1356 
Q 3559 666 3084 287 
Q 2609 -91 1734 -91 
Q 1441 -91 1130 -33 
Q 819 25 488 141 
L 488 750 
Q 750 597 1062 519 
Q 1375 441 1716 441 
Q 2309 441 2620 675 
Q 2931 909 2931 1356 
Q 2931 1769 2642 2001 
Q 2353 2234 1838 2234 
L 1294 2234 
L 1294 2753 
L 1863 2753 
Q 2328 2753 2575 2939 
Q 2822 3125 2822 3475 
Q 2822 3834 2567 4026 
Q 2313 4219 1838 4219 
Q 1578 4219 1281 4162 
Q 984 4106 628 3988 
L 628 4550 
Q 988 4650 1302 4700 
Q 1616 4750 1894 4750 
Q 2613 4750 3031 4423 
Q 3450 4097 3450 3541 
Q 3450 3153 3228 2886 
Q 3006 2619 2597 2516 
z
" id="DejaVuSans-33" transform="scale(0.015625)"/>
       </defs>
       <use xlink:href="#DejaVuSans-33"/>
       <use x="63.623047" xlink:href="#DejaVuSans-30"/>
       <use x="127.246094" xlink:href="#DejaVuSans-30"/>
      </g>
     </g>
    </g>
    <g id="ytick_4">
     <g id="line2d_12">
      <g>
       <use style="stroke:#000000;stroke-width:0.8;" x="57.6" xlink:href="#m19a6fca343" y="46.970182"/>
      </g>
     </g>
     <g id="text_12">
      <!-- 400 -->
      <g transform="translate(31.5125 50.769401)scale(0.1 -0.1)">
       <use xlink:href="#DejaVuSans-34"/>
       <use x="63.623047" xlink:href="#DejaVuSans-30"/>
       <use x="127.246094" xlink:href="#DejaVuSans-30"/>
      </g>
     </g>
    </g>
    <g id="text_13">
     <!-- Frequency (Hz) -->
     <g transform="translate(25.432812 139.656688)rotate(-90)scale(0.1 -0.1)">
      <defs>
       <path d="M 628 4666 
L 3309 4666 
L 3309 4134 
L 1259 4134 
L 1259 2759 
L 3109 2759 
L 3109 2228 
L 1259 2228 
L 1259 0 
L 628 0 
L 628 4666 
z
" id="DejaVuSans-46" transform="scale(0.015625)"/>
       <path d="M 2631 2963 
Q 2534 3019 2420 3045 
Q 2306 3072 2169 3072 
Q 1681 3072 1420 2755 
Q 1159 2438 1159 1844 
L 1159 0 
L 581 0 
L 581 3500 
L 1159 3500 
L 1159 2956 
Q 1341 3275 1631 3429 
Q 1922 3584 2338 3584 
Q 2397 3584 2469 3576 
Q 2541 3569 2628 3553 
L 2631 2963 
z
" id="DejaVuSans-72" transform="scale(0.015625)"/>
       <path d="M 3597 1894 
L 3597 1613 
L 953 1613 
Q 991 1019 1311 708 
Q 1631 397 2203 397 
Q 2534 397 2845 478 
Q 3156 559 3463 722 
L 3463 178 
Q 3153 47 2828 -22 
Q 2503 -91 2169 -91 
Q 1331 -91 842 396 
Q 353 884 353 1716 
Q 353 2575 817 3079 
Q 1281 3584 2069 3584 
Q 2775 3584 3186 3129 
Q 3597 2675 3597 1894 
z
M 3022 2063 
Q 3016 2534 2758 2815 
Q 2500 3097 2075 3097 
Q 1594 3097 1305 2825 
Q 1016 2553 972 2059 
L 3022 2063 
z
" id="DejaVuSans-65" transform="scale(0.015625)"/>
       <path d="M 947 1747 
Q 947 1113 1208 752 
Q 1469 391 1925 391 
Q 2381 391 2643 752 
Q 2906 1113 2906 1747 
Q 2906 2381 2643 2742 
Q 2381 3103 1925 3103 
Q 1469 3103 1208 2742 
Q 947 2381 947 1747 
z
M 2906 525 
Q 2725 213 2448 61 
Q 2172 -91 1784 -91 
Q 1150 -91 751 415 
Q 353 922 353 1747 
Q 353 2572 751 3078 
Q 1150 3584 1784 3584 
Q 2172 3584 2448 3432 
Q 2725 3281 2906 2969 
L 2906 3500 
L 3481 3500 
L 3481 -1331 
L 2906 -1331 
L 2906 525 
z
" id="DejaVuSans-71" transform="scale(0.015625)"/>
       <path d="M 544 1381 
L 544 3500 
L 1119 3500 
L 1119 1403 
Q 1119 906 1312 657 
Q 1506 409 1894 409 
Q 2359 409 2629 706 
Q 2900 1003 2900 1516 
L 2900 3500 
L 3475 3500 
L 3475 0 
L 2900 0 
L 2900 538 
Q 2691 219 2414 64 
Q 2138 -91 1772 -91 
Q 1169 -91 856 284 
Q 544 659 544 1381 
z
M 1991 3584 
L 1991 3584 
z
" id="DejaVuSans-75" transform="scale(0.015625)"/>
       <path d="M 3513 2113 
L 3513 0 
L 2938 0 
L 2938 2094 
Q 2938 2591 2744 2837 
Q 2550 3084 2163 3084 
Q 1697 3084 1428 2787 
Q 1159 2491 1159 1978 
L 1159 0 
L 581 0 
L 581 3500 
L 1159 3500 
L 1159 2956 
Q 1366 3272 1645 3428 
Q 1925 3584 2291 3584 
Q 2894 3584 3203 3211 
Q 3513 2838 3513 2113 
z
" id="DejaVuSans-6e" transform="scale(0.015625)"/>
       <path d="M 3122 3366 
L 3122 2828 
Q 2878 2963 2633 3030 
Q 2388 3097 2138 3097 
Q 1578 3097 1268 2742 
Q 959 2388 959 1747 
Q 959 1106 1268 751 
Q 1578 397 2138 397 
Q 2388 397 2633 464 
Q 2878 531 3122 666 
L 3122 134 
Q 2881 22 2623 -34 
Q 2366 -91 2075 -91 
Q 1284 -91 818 406 
Q 353 903 353 1747 
Q 353 2603 823 3093 
Q 1294 3584 2113 3584 
Q 2378 3584 2631 3529 
Q 2884 3475 3122 3366 
z
" id="DejaVuSans-63" transform="scale(0.015625)"/>
       <path d="M 2059 -325 
Q 1816 -950 1584 -1140 
Q 1353 -1331 966 -1331 
L 506 -1331 
L 506 -850 
L 844 -850 
Q 1081 -850 1212 -737 
Q 1344 -625 1503 -206 
L 1606 56 
L 191 3500 
L 800 3500 
L 1894 763 
L 2988 3500 
L 3597 3500 
L 2059 -325 
z
" id="DejaVuSans-79" transform="scale(0.015625)"/>
       <path id="DejaVuSans-20" transform="scale(0.015625)"/>
       <path d="M 1984 4856 
Q 1566 4138 1362 3434 
Q 1159 2731 1159 2009 
Q 1159 1288 1364 580 
Q 1569 -128 1984 -844 
L 1484 -844 
Q 1016 -109 783 600 
Q 550 1309 550 2009 
Q 550 2706 781 3412 
Q 1013 4119 1484 4856 
L 1984 4856 
z
" id="DejaVuSans-28" transform="scale(0.015625)"/>
       <path d="M 628 4666 
L 1259 4666 
L 1259 2753 
L 3553 2753 
L 3553 4666 
L 4184 4666 
L 4184 0 
L 3553 0 
L 3553 2222 
L 1259 2222 
L 1259 0 
L 628 0 
L 628 4666 
z
" id="DejaVuSans-48" transform="scale(0.015625)"/>
       <path d="M 353 3500 
L 3084 3500 
L 3084 2975 
L 922 459 
L 3084 459 
L 3084 0 
L 275 0 
L 275 525 
L 2438 3041 
L 353 3041 
L 353 3500 
z
" id="DejaVuSans-7a" transform="scale(0.015625)"/>
       <path d="M 513 4856 
L 1013 4856 
Q 1481 4119 1714 3412 
Q 1947 2706 1947 2009 
Q 1947 1309 1714 600 
Q 1481 -109 1013 -844 
L 513 -844 
Q 928 -128 1133 580 
Q 1338 1288 1338 2009 
Q 1338 2731 1133 3434 
Q 928 4138 513 4856 
z
" id="DejaVuSans-29" transform="scale(0.015625)"/>
      </defs>
      <use xlink:href="#DejaVuSans-46"/>
      <use x="50.269531" xlink:href="#DejaVuSans-72"/>
      <use x="89.132812" xlink:href="#DejaVuSans-65"/>
      <use x="150.65625" xlink:href="#DejaVuSans-71"/>
      <use x="214.132812" xlink:href="#DejaVuSans-75"/>
      <use x="277.511719" xlink:href="#DejaVuSans-65"/>
      <use x="339.035156" xlink:href="#DejaVuSans-6e"/>
      <use x="402.414062" xlink:href="#DejaVuSans-63"/>
      <use x="457.394531" xlink:href="#DejaVuSans-79"/>
      <use x="516.574219" xlink:href="#DejaVuSans-20"/>
      <use x="548.361328" xlink:href="#DejaVuSans-28"/>
      <use x="587.375" xlink:href="#DejaVuSans-48"/>
      <use x="662.570312" xlink:href="#DejaVuSans-7a"/>
      <use x="715.060547" xlink:href="#DejaVuSans-29"/>
     </g>
    </g>
   </g>
   <g id="line2d_13">
    <path clip-path="url(#p72b8cf5da4)" d="M 73.832727 130.148857 
L 74.181443 138.005166 
L 74.530159 138.005166 
L 74.878875 135.65966 
L 75.227591 135.65966 
L 75.576307 135.244738 
L 75.925023 140.793107 
L 76.273739 144.106276 
L 76.971171 46.970182 
L 77.319887 46.970182 
L 77.668603 111.38675 
L 78.017319 110.43243 
L 78.366035 96.617519 
L 78.714751 93.786595 
L 79.063466 78.352612 
L 79.412182 76.301473 
L 79.760898 76.301473 
L 80.109614 128.015045 
L 80.45833 125.701543 
L 80.807046 125.701543 
L 81.155762 99.274233 
L 81.504478 139.789117 
L 81.853194 142.963499 
L 82.20191 135.65966 
L 82.550626 76.301473 
L 82.899342 102.966283 
L 83.248058 96.617519 
L 83.596774 105.251839 
L 83.94549 104.125623 
L 84.294206 104.125623 
L 84.642922 102.966283 
L 85.340353 102.966283 
L 86.037785 97.966632 
L 86.386501 96.617519 
L 86.735217 97.966632 
L 87.083933 76.301473 
L 87.432649 100.54221 
L 87.781365 110.43243 
L 88.130081 109.452318 
L 88.478797 111.38675 
L 88.827513 106.34633 
L 89.176229 105.251839 
L 89.524945 96.617519 
L 89.873661 96.617519 
L 90.222377 93.786595 
L 90.571093 95.224887 
L 90.919809 93.786595 
L 91.268525 96.617519 
L 91.617241 96.617519 
L 91.965956 95.224887 
L 92.314672 111.38675 
L 92.663388 139.443744 
L 93.012104 156.933818 
L 93.36082 125.092403 
L 93.709536 82.226987 
L 94.058252 96.617519 
L 95.453116 96.617519 
L 95.801832 112.316282 
L 96.150548 111.38675 
L 96.499264 111.38675 
L 96.84798 93.786595 
L 97.196696 146.936732 
L 97.545412 93.786595 
L 97.894128 140.793107 
L 98.242843 138.736151 
L 98.591559 125.701543 
L 98.940275 121.146836 
L 99.288991 121.146836 
L 99.986423 90.763743 
L 100.335139 92.300359 
L 100.683855 90.763743 
L 101.032571 100.54221 
L 101.381287 99.274233 
L 101.730003 90.763743 
L 102.078719 135.244738 
L 102.427435 135.65966 
L 102.776151 135.65966 
L 103.124867 139.092801 
L 103.473583 99.274233 
L 103.822299 97.966632 
L 104.171015 113.22198 
L 104.51973 82.226987 
L 104.868446 132.123132 
L 105.217162 125.701543 
L 105.565878 123.184656 
L 105.914594 74.168288 
L 106.26331 121.841374 
L 106.612026 123.184656 
L 106.960742 123.184656 
L 107.309458 122.520478 
L 107.658174 122.520478 
L 108.00689 143.543169 
L 108.355606 139.789117 
L 108.704322 144.38184 
L 109.401754 134.392667 
L 109.75047 140.463673 
L 110.099186 110.43243 
L 110.447902 109.452318 
L 110.796618 120.436332 
L 111.145333 121.146836 
L 111.494049 126.882144 
L 111.842765 82.226987 
L 112.191481 101.772337 
L 112.540197 104.125623 
L 112.888913 101.772337 
L 113.237629 102.966283 
L 115.329925 102.966283 
L 115.678641 104.125623 
L 116.376073 104.125623 
L 116.724789 105.251839 
L 117.42222 105.251839 
L 117.770936 106.34633 
L 118.468368 106.34633 
L 119.1658 108.445354 
L 119.514516 108.445354 
L 120.211948 110.43243 
L 120.560664 109.452318 
L 120.90938 111.38675 
L 121.258096 112.316282 
L 121.606812 111.38675 
L 121.955528 112.316282 
L 122.65296 112.316282 
L 123.001676 113.22198 
L 123.350392 113.22198 
L 123.699108 112.316282 
L 124.047823 113.22198 
L 124.396539 113.22198 
L 124.745255 112.316282 
L 125.093971 112.316282 
L 125.442687 114.104749 
L 125.791403 113.22198 
L 126.140119 113.22198 
L 126.488835 114.104749 
L 127.186267 114.104749 
L 127.534983 115.804896 
L 127.883699 114.104749 
L 128.232415 114.965448 
L 128.929847 114.965448 
L 129.278563 115.804896 
L 129.627279 115.804896 
L 130.32471 117.423108 
L 130.673426 117.423108 
L 131.022142 118.203318 
L 131.719574 118.203318 
L 132.765722 120.436332 
L 133.81187 124.470163 
L 134.160586 124.470163 
L 134.509302 127.454375 
L 134.858018 127.454375 
L 135.206734 126.297992 
L 135.55545 111.38675 
L 135.904166 106.34633 
L 136.601598 100.54221 
L 136.950313 99.274233 
L 137.299029 100.54221 
L 137.647745 99.274233 
L 140.786189 99.274233 
L 141.134905 97.966632 
L 141.832337 97.966632 
L 142.181053 140.129051 
L 142.529769 139.789117 
L 142.878485 128.015045 
L 143.2272 144.38184 
L 143.575916 144.38184 
L 143.924632 120.436332 
L 144.273348 138.736151 
L 144.622064 113.22198 
L 145.319496 113.22198 
L 145.668212 135.244738 
L 146.016928 71.948035 
L 146.365644 110.43243 
L 146.71436 111.38675 
L 147.063076 111.38675 
L 147.411792 126.882144 
L 147.760508 96.617519 
L 148.109224 93.786595 
L 148.45794 93.786595 
L 148.806656 97.966632 
L 149.155372 97.966632 
L 149.504087 146.936732 
L 149.852803 125.701543 
L 150.201519 78.352612 
L 150.550235 115.804896 
L 151.247667 100.54221 
L 151.596383 99.274233 
L 151.945099 114.104749 
L 152.293815 114.104749 
L 152.642531 113.22198 
L 152.991247 134.392667 
L 153.339963 130.148857 
L 153.688679 130.148857 
L 154.037395 142.667223 
L 154.386111 135.244738 
L 154.734827 151.698523 
L 155.083543 144.106276 
L 155.432259 108.445354 
L 155.780975 93.786595 
L 156.12969 110.43243 
L 156.478406 111.38675 
L 156.827122 139.443744 
L 157.175838 112.316282 
L 157.524554 146.936732 
L 157.87327 123.184656 
L 158.221986 122.520478 
L 158.570702 128.564501 
L 158.919418 46.970182 
L 159.61685 69.635271 
L 160.662998 69.635271 
L 161.011714 107.410419 
L 161.36043 106.34633 
L 161.709146 107.410419 
L 163.452725 107.410419 
L 163.801441 106.34633 
L 164.498873 106.34633 
L 164.847589 145.703034 
L 173.216772 145.703034 
L 173.565488 145.956488 
L 173.914204 145.703034 
L 187.16541 145.703034 
L 187.514126 108.445354 
L 187.862842 106.34633 
L 188.908989 106.34633 
L 189.257705 105.251839 
L 189.606421 105.251839 
L 190.303853 107.410419 
L 190.652569 145.185566 
L 191.001285 145.703034 
L 191.350001 145.956488 
L 191.698717 145.703034 
L 192.047433 145.703034 
L 192.744865 136.067427 
L 193.093581 139.789117 
L 193.442297 133.955117 
L 193.791013 134.822473 
L 194.139729 140.129051 
L 194.488444 140.129051 
L 194.83716 139.443744 
L 195.534592 109.452318 
L 195.883308 110.43243 
L 196.232024 109.452318 
L 196.929456 109.452318 
L 197.278172 97.966632 
L 197.626888 143.255449 
L 197.975604 111.38675 
L 199.021752 111.38675 
L 199.370468 133.955117 
L 199.719184 134.392667 
L 200.0679 112.316282 
L 200.416616 126.297992 
L 201.114047 126.297992 
L 201.462763 125.701543 
L 201.811479 120.436332 
L 202.160195 133.055932 
L 202.857627 133.055932 
L 203.206343 129.103078 
L 203.555059 139.092801 
L 203.903775 112.316282 
L 204.252491 99.274233 
L 204.601207 97.966632 
L 204.949923 97.966632 
L 205.298639 96.617519 
L 205.647355 135.244738 
L 205.996071 148.532731 
L 206.344787 148.74926 
L 206.693503 121.146836 
L 207.042219 133.509612 
L 207.390934 109.452318 
L 207.73965 97.966632 
L 208.088366 99.274233 
L 208.437082 99.274233 
L 208.785798 96.617519 
L 209.134514 96.617519 
L 209.48323 134.822473 
L 210.180662 134.822473 
L 210.529378 110.43243 
L 210.878094 111.38675 
L 211.22681 101.772337 
L 211.575526 139.789117 
L 211.924242 124.470163 
L 212.272958 124.470163 
L 212.621674 89.17414 
L 212.97039 134.822473 
L 213.319106 133.955117 
L 214.016537 133.955117 
L 214.365253 133.509612 
L 236.683074 133.509612 
L 237.03179 133.055932 
L 238.077938 133.055932 
L 238.426654 124.470163 
L 238.77537 123.184656 
L 239.472801 121.841374 
L 239.821517 121.841374 
L 240.170233 97.966632 
L 240.518949 123.184656 
L 240.867665 123.184656 
L 241.216381 128.564501 
L 241.565097 128.564501 
L 241.913813 128.015045 
L 242.262529 113.22198 
L 242.611245 112.316282 
L 242.959961 110.43243 
L 243.308677 112.316282 
L 243.657393 118.96517 
L 244.006109 123.184656 
L 244.354825 123.184656 
L 244.703541 122.520478 
L 245.052257 126.297992 
L 245.400973 126.297992 
L 245.749689 138.373655 
L 246.098404 112.316282 
L 246.44712 112.316282 
L 246.795836 111.38675 
L 247.144552 97.966632 
L 247.841984 111.38675 
L 248.1907 109.452318 
L 248.539416 110.43243 
L 248.888132 121.146836 
L 249.236848 110.43243 
L 249.585564 111.38675 
L 249.93428 110.43243 
L 250.282996 121.146836 
L 250.631712 99.274233 
L 250.980428 143.543169 
L 251.329144 128.015045 
L 251.67786 128.015045 
L 252.026576 138.373655 
L 252.375291 139.789117 
L 252.724007 132.59385 
L 253.072723 132.59385 
L 253.421439 132.123132 
L 253.770155 142.667223 
L 254.467587 76.301473 
L 254.816303 93.786595 
L 255.513735 93.786595 
L 255.862451 111.38675 
L 256.559883 96.617519 
L 257.257315 93.786595 
L 257.606031 93.786595 
L 257.954747 74.168288 
L 258.303463 74.168288 
L 258.652178 102.966283 
L 259.000894 102.966283 
L 259.34961 97.966632 
L 259.698326 99.274233 
L 260.047042 136.862229 
L 260.395758 97.966632 
L 260.744474 140.129051 
L 261.09319 78.352612 
L 261.790622 78.352612 
L 262.139338 93.786595 
L 262.488054 93.786595 
L 262.83677 138.373655 
L 263.185486 138.373655 
L 263.534202 126.297992 
L 263.882918 121.146836 
L 264.231634 100.54221 
L 264.58035 90.763743 
L 264.929066 115.804896 
L 265.277781 85.82462 
L 265.975213 85.82462 
L 266.323929 84.058509 
L 267.021361 84.058509 
L 267.370077 82.226987 
L 273.298248 82.226987 
L 273.646964 80.32635 
L 273.99568 82.226987 
L 278.528987 82.226987 
L 278.877703 80.32635 
L 279.575135 80.32635 
L 279.923851 82.226987 
L 280.621283 82.226987 
L 280.969999 80.32635 
L 281.667431 80.32635 
L 282.016147 82.226987 
L 282.713579 78.352612 
L 283.411011 78.352612 
L 283.759727 80.32635 
L 284.805874 80.32635 
L 285.503306 76.301473 
L 285.852022 46.970182 
L 286.89817 46.970182 
L 287.246886 74.168288 
L 287.595602 76.301473 
L 287.944318 46.970182 
L 288.990466 46.970182 
L 289.339182 71.948035 
L 289.687898 115.804896 
L 290.036614 115.804896 
L 290.734046 109.452318 
L 291.082761 112.316282 
L 291.431477 142.061306 
L 291.780193 112.316282 
L 292.128909 113.22198 
L 292.477625 146.206516 
L 292.826341 144.38184 
L 293.175057 144.653522 
L 294.221205 146.936732 
L 294.569921 145.185566 
L 294.918637 139.789117 
L 295.267353 139.443744 
L 295.616069 111.38675 
L 295.964785 139.443744 
L 296.313501 138.005166 
L 296.662217 138.005166 
L 297.010933 138.736151 
L 297.359648 143.543169 
L 297.708364 100.54221 
L 298.05708 99.274233 
L 298.754512 99.274233 
L 299.103228 126.297992 
L 299.451944 121.841374 
L 299.80066 121.841374 
L 300.149376 154.331129 
L 300.498092 138.373655 
L 300.846808 105.251839 
L 301.195524 110.43243 
L 301.54424 110.43243 
L 301.892956 122.520478 
L 302.241672 122.520478 
L 302.590388 127.454375 
L 302.939104 127.454375 
L 303.28782 128.015045 
L 303.636535 110.43243 
L 304.333967 110.43243 
L 304.682683 97.966632 
L 305.031399 111.38675 
L 305.380115 110.43243 
L 306.077547 114.104749 
L 306.426263 114.104749 
L 306.774979 120.436332 
L 307.123695 138.373655 
L 307.472411 138.373655 
L 307.821127 139.443744 
L 308.169843 139.443744 
L 308.518559 104.125623 
L 309.215991 99.274233 
L 309.913423 120.436332 
L 310.262138 121.146836 
L 310.610854 111.38675 
L 310.95957 111.38675 
L 311.308286 121.146836 
L 311.657002 138.736151 
L 312.005718 143.255449 
L 312.354434 139.443744 
L 312.70315 78.352612 
L 313.051866 101.772337 
L 313.400582 101.772337 
L 313.749298 100.54221 
L 314.098014 100.54221 
L 314.44673 99.274233 
L 337.810698 99.274233 
L 338.159414 100.54221 
L 338.50813 99.274233 
L 350.364472 99.274233 
L 350.713188 97.966632 
L 351.41062 97.966632 
L 351.759336 135.244738 
L 352.108052 140.793107 
L 352.456768 126.297992 
L 352.805484 99.274233 
L 353.502916 99.274233 
L 353.851632 143.255449 
L 354.200348 139.789117 
L 354.549064 120.436332 
L 355.246495 120.436332 
L 355.595211 121.146836 
L 355.943927 142.061306 
L 356.292643 140.129051 
L 356.641359 82.226987 
L 356.990075 99.274233 
L 357.338791 101.772337 
L 357.687507 102.966283 
L 358.036223 101.772337 
L 358.733655 101.772337 
L 359.082371 100.54221 
L 359.431087 101.772337 
L 359.779803 100.54221 
L 360.128519 100.54221 
L 360.477235 101.772337 
L 360.825951 99.274233 
L 361.174667 100.54221 
L 361.523382 102.966283 
L 361.872098 71.948035 
L 385.933499 71.948035 
L 386.282215 69.635271 
L 386.630931 69.635271 
L 386.979647 71.948035 
L 387.328362 76.301473 
L 387.677078 106.34633 
L 388.025794 106.34633 
L 388.37451 105.251839 
L 389.071942 105.251839 
L 389.420658 142.963499 
L 389.769374 140.463673 
L 390.11809 140.463673 
L 390.466806 106.34633 
L 390.815522 104.125623 
L 391.164238 104.125623 
L 391.512954 101.772337 
L 391.86167 101.772337 
L 392.210386 108.445354 
L 392.559102 109.452318 
L 392.907818 108.445354 
L 393.256534 104.125623 
L 393.605249 105.251839 
L 393.953965 104.125623 
L 394.302681 105.251839 
L 394.651397 105.251839 
L 395.000113 102.966283 
L 395.348829 102.966283 
L 395.697545 99.274233 
L 396.046261 99.274233 
L 396.394977 74.168288 
L 396.743693 96.617519 
L 397.092409 110.43243 
L 397.441125 137.249611 
L 397.789841 110.43243 
L 398.138557 92.300359 
L 398.487273 93.786595 
L 398.487273 93.786595 
" style="fill:none;stroke:#1f77b4;stroke-linecap:square;stroke-width:1.5;"/>
   </g>
   <g id="patch_3">
    <path d="M 57.6 162.432 
L 57.6 41.472 
" style="fill:none;stroke:#000000;stroke-linecap:square;stroke-linejoin:miter;stroke-width:0.8;"/>
   </g>
   <g id="patch_4">
    <path d="M 414.72 162.432 
L 414.72 41.472 
" style="fill:none;stroke:#000000;stroke-linecap:square;stroke-linejoin:miter;stroke-width:0.8;"/>
   </g>
   <g id="patch_5">
    <path d="M 57.6 162.432 
L 414.72 162.432 
" style="fill:none;stroke:#000000;stroke-linecap:square;stroke-linejoin:miter;stroke-width:0.8;"/>
   </g>
   <g id="patch_6">
    <path d="M 57.6 41.472 
L 414.72 41.472 
" style="fill:none;stroke:#000000;stroke-linecap:square;stroke-linejoin:miter;stroke-width:0.8;"/>
   </g>
   <g id="text_14">
    <!-- F0 -->
    <g transform="translate(228.891562 35.472)scale(0.12 -0.12)">
     <use xlink:href="#DejaVuSans-46"/>
     <use x="57.519531" xlink:href="#DejaVuSans-30"/>
    </g>
   </g>
  </g>
  <g id="axes_2">
   <g id="patch_7">
    <path d="M 57.6 307.584 
L 414.72 307.584 
L 414.72 186.624 
L 57.6 186.624 
z
" style="fill:#ffffff;"/>
   </g>
   <g id="matplotlib.axis_3">
    <g id="xtick_9">
     <g id="line2d_14">
      <g>
       <use style="stroke:#000000;stroke-width:0.8;" x="73.832727" xlink:href="#m12c09d28bd" y="307.584"/>
      </g>
     </g>
     <g id="text_15">
      <!-- 0 -->
      <g transform="translate(70.651477 322.182437)scale(0.1 -0.1)">
       <use xlink:href="#DejaVuSans-30"/>
      </g>
     </g>
    </g>
    <g id="xtick_10">
     <g id="line2d_15">
      <g>
       <use style="stroke:#000000;stroke-width:0.8;" x="117.235941" xlink:href="#m12c09d28bd" y="307.584"/>
      </g>
     </g>
     <g id="text_16">
      <!-- 2 -->
      <g transform="translate(114.054691 322.182437)scale(0.1 -0.1)">
       <use xlink:href="#DejaVuSans-32"/>
      </g>
     </g>
    </g>
    <g id="xtick_11">
     <g id="line2d_16">
      <g>
       <use style="stroke:#000000;stroke-width:0.8;" x="160.639154" xlink:href="#m12c09d28bd" y="307.584"/>
      </g>
     </g>
     <g id="text_17">
      <!-- 4 -->
      <g transform="translate(157.457904 322.182437)scale(0.1 -0.1)">
       <use xlink:href="#DejaVuSans-34"/>
      </g>
     </g>
    </g>
    <g id="xtick_12">
     <g id="line2d_17">
      <g>
       <use style="stroke:#000000;stroke-width:0.8;" x="204.042367" xlink:href="#m12c09d28bd" y="307.584"/>
      </g>
     </g>
     <g id="text_18">
      <!-- 6 -->
      <g transform="translate(200.861117 322.182437)scale(0.1 -0.1)">
       <use xlink:href="#DejaVuSans-36"/>
      </g>
     </g>
    </g>
    <g id="xtick_13">
     <g id="line2d_18">
      <g>
       <use style="stroke:#000000;stroke-width:0.8;" x="247.445581" xlink:href="#m12c09d28bd" y="307.584"/>
      </g>
     </g>
     <g id="text_19">
      <!-- 8 -->
      <g transform="translate(244.264331 322.182437)scale(0.1 -0.1)">
       <use xlink:href="#DejaVuSans-38"/>
      </g>
     </g>
    </g>
    <g id="xtick_14">
     <g id="line2d_19">
      <g>
       <use style="stroke:#000000;stroke-width:0.8;" x="290.848794" xlink:href="#m12c09d28bd" y="307.584"/>
      </g>
     </g>
     <g id="text_20">
      <!-- 10 -->
      <g transform="translate(284.486294 322.182437)scale(0.1 -0.1)">
       <use xlink:href="#DejaVuSans-31"/>
       <use x="63.623047" xlink:href="#DejaVuSans-30"/>
      </g>
     </g>
    </g>
    <g id="xtick_15">
     <g id="line2d_20">
      <g>
       <use style="stroke:#000000;stroke-width:0.8;" x="334.252007" xlink:href="#m12c09d28bd" y="307.584"/>
      </g>
     </g>
     <g id="text_21">
      <!-- 12 -->
      <g transform="translate(327.889507 322.182437)scale(0.1 -0.1)">
       <use xlink:href="#DejaVuSans-31"/>
       <use x="63.623047" xlink:href="#DejaVuSans-32"/>
      </g>
     </g>
    </g>
    <g id="xtick_16">
     <g id="line2d_21">
      <g>
       <use style="stroke:#000000;stroke-width:0.8;" x="377.655221" xlink:href="#m12c09d28bd" y="307.584"/>
      </g>
     </g>
     <g id="text_22">
      <!-- 14 -->
      <g transform="translate(371.292721 322.182437)scale(0.1 -0.1)">
       <use xlink:href="#DejaVuSans-31"/>
       <use x="63.623047" xlink:href="#DejaVuSans-34"/>
      </g>
     </g>
    </g>
    <g id="text_23">
     <!-- Time (seconds) -->
     <g transform="translate(197.998281 335.860562)scale(0.1 -0.1)">
      <defs>
       <path d="M -19 4666 
L 3928 4666 
L 3928 4134 
L 2272 4134 
L 2272 0 
L 1638 0 
L 1638 4134 
L -19 4134 
L -19 4666 
z
" id="DejaVuSans-54" transform="scale(0.015625)"/>
       <path d="M 603 3500 
L 1178 3500 
L 1178 0 
L 603 0 
L 603 3500 
z
M 603 4863 
L 1178 4863 
L 1178 4134 
L 603 4134 
L 603 4863 
z
" id="DejaVuSans-69" transform="scale(0.015625)"/>
       <path d="M 3328 2828 
Q 3544 3216 3844 3400 
Q 4144 3584 4550 3584 
Q 5097 3584 5394 3201 
Q 5691 2819 5691 2113 
L 5691 0 
L 5113 0 
L 5113 2094 
Q 5113 2597 4934 2840 
Q 4756 3084 4391 3084 
Q 3944 3084 3684 2787 
Q 3425 2491 3425 1978 
L 3425 0 
L 2847 0 
L 2847 2094 
Q 2847 2600 2669 2842 
Q 2491 3084 2119 3084 
Q 1678 3084 1418 2786 
Q 1159 2488 1159 1978 
L 1159 0 
L 581 0 
L 581 3500 
L 1159 3500 
L 1159 2956 
Q 1356 3278 1631 3431 
Q 1906 3584 2284 3584 
Q 2666 3584 2933 3390 
Q 3200 3197 3328 2828 
z
" id="DejaVuSans-6d" transform="scale(0.015625)"/>
       <path d="M 2834 3397 
L 2834 2853 
Q 2591 2978 2328 3040 
Q 2066 3103 1784 3103 
Q 1356 3103 1142 2972 
Q 928 2841 928 2578 
Q 928 2378 1081 2264 
Q 1234 2150 1697 2047 
L 1894 2003 
Q 2506 1872 2764 1633 
Q 3022 1394 3022 966 
Q 3022 478 2636 193 
Q 2250 -91 1575 -91 
Q 1294 -91 989 -36 
Q 684 19 347 128 
L 347 722 
Q 666 556 975 473 
Q 1284 391 1588 391 
Q 1994 391 2212 530 
Q 2431 669 2431 922 
Q 2431 1156 2273 1281 
Q 2116 1406 1581 1522 
L 1381 1569 
Q 847 1681 609 1914 
Q 372 2147 372 2553 
Q 372 3047 722 3315 
Q 1072 3584 1716 3584 
Q 2034 3584 2315 3537 
Q 2597 3491 2834 3397 
z
" id="DejaVuSans-73" transform="scale(0.015625)"/>
       <path d="M 1959 3097 
Q 1497 3097 1228 2736 
Q 959 2375 959 1747 
Q 959 1119 1226 758 
Q 1494 397 1959 397 
Q 2419 397 2687 759 
Q 2956 1122 2956 1747 
Q 2956 2369 2687 2733 
Q 2419 3097 1959 3097 
z
M 1959 3584 
Q 2709 3584 3137 3096 
Q 3566 2609 3566 1747 
Q 3566 888 3137 398 
Q 2709 -91 1959 -91 
Q 1206 -91 779 398 
Q 353 888 353 1747 
Q 353 2609 779 3096 
Q 1206 3584 1959 3584 
z
" id="DejaVuSans-6f" transform="scale(0.015625)"/>
       <path d="M 2906 2969 
L 2906 4863 
L 3481 4863 
L 3481 0 
L 2906 0 
L 2906 525 
Q 2725 213 2448 61 
Q 2172 -91 1784 -91 
Q 1150 -91 751 415 
Q 353 922 353 1747 
Q 353 2572 751 3078 
Q 1150 3584 1784 3584 
Q 2172 3584 2448 3432 
Q 2725 3281 2906 2969 
z
M 947 1747 
Q 947 1113 1208 752 
Q 1469 391 1925 391 
Q 2381 391 2643 752 
Q 2906 1113 2906 1747 
Q 2906 2381 2643 2742 
Q 2381 3103 1925 3103 
Q 1469 3103 1208 2742 
Q 947 2381 947 1747 
z
" id="DejaVuSans-64" transform="scale(0.015625)"/>
      </defs>
      <use xlink:href="#DejaVuSans-54"/>
      <use x="57.958984" xlink:href="#DejaVuSans-69"/>
      <use x="85.742188" xlink:href="#DejaVuSans-6d"/>
      <use x="183.154297" xlink:href="#DejaVuSans-65"/>
      <use x="244.677734" xlink:href="#DejaVuSans-20"/>
      <use x="276.464844" xlink:href="#DejaVuSans-28"/>
      <use x="315.478516" xlink:href="#DejaVuSans-73"/>
      <use x="367.578125" xlink:href="#DejaVuSans-65"/>
      <use x="429.101562" xlink:href="#DejaVuSans-63"/>
      <use x="484.082031" xlink:href="#DejaVuSans-6f"/>
      <use x="545.263672" xlink:href="#DejaVuSans-6e"/>
      <use x="608.642578" xlink:href="#DejaVuSans-64"/>
      <use x="672.119141" xlink:href="#DejaVuSans-73"/>
      <use x="724.21875" xlink:href="#DejaVuSans-29"/>
     </g>
    </g>
   </g>
   <g id="matplotlib.axis_4">
    <g id="ytick_5">
     <g id="line2d_22">
      <g>
       <use style="stroke:#000000;stroke-width:0.8;" x="57.6" xlink:href="#m19a6fca343" y="302.085818"/>
      </g>
     </g>
     <g id="text_24">
      <!-- 0 -->
      <g transform="translate(44.2375 305.885037)scale(0.1 -0.1)">
       <use xlink:href="#DejaVuSans-30"/>
      </g>
     </g>
    </g>
    <g id="ytick_6">
     <g id="line2d_23">
      <g>
       <use style="stroke:#000000;stroke-width:0.8;" x="57.6" xlink:href="#m19a6fca343" y="269.096727"/>
      </g>
     </g>
     <g id="text_25">
      <!-- 100 -->
      <g transform="translate(31.5125 272.895946)scale(0.1 -0.1)">
       <use xlink:href="#DejaVuSans-31"/>
       <use x="63.623047" xlink:href="#DejaVuSans-30"/>
       <use x="127.246094" xlink:href="#DejaVuSans-30"/>
      </g>
     </g>
    </g>
    <g id="ytick_7">
     <g id="line2d_24">
      <g>
       <use style="stroke:#000000;stroke-width:0.8;" x="57.6" xlink:href="#m19a6fca343" y="236.107636"/>
      </g>
     </g>
     <g id="text_26">
      <!-- 200 -->
      <g transform="translate(31.5125 239.906855)scale(0.1 -0.1)">
       <use xlink:href="#DejaVuSans-32"/>
       <use x="63.623047" xlink:href="#DejaVuSans-30"/>
       <use x="127.246094" xlink:href="#DejaVuSans-30"/>
      </g>
     </g>
    </g>
    <g id="ytick_8">
     <g id="line2d_25">
      <g>
       <use style="stroke:#000000;stroke-width:0.8;" x="57.6" xlink:href="#m19a6fca343" y="203.118545"/>
      </g>
     </g>
     <g id="text_27">
      <!-- 300 -->
      <g transform="translate(31.5125 206.917764)scale(0.1 -0.1)">
       <use xlink:href="#DejaVuSans-33"/>
       <use x="63.623047" xlink:href="#DejaVuSans-30"/>
       <use x="127.246094" xlink:href="#DejaVuSans-30"/>
      </g>
     </g>
    </g>
    <g id="text_28">
     <!-- Frequency (Hz) -->
     <g transform="translate(25.432812 284.808687)rotate(-90)scale(0.1 -0.1)">
      <use xlink:href="#DejaVuSans-46"/>
      <use x="50.269531" xlink:href="#DejaVuSans-72"/>
      <use x="89.132812" xlink:href="#DejaVuSans-65"/>
      <use x="150.65625" xlink:href="#DejaVuSans-71"/>
      <use x="214.132812" xlink:href="#DejaVuSans-75"/>
      <use x="277.511719" xlink:href="#DejaVuSans-65"/>
      <use x="339.035156" xlink:href="#DejaVuSans-6e"/>
      <use x="402.414062" xlink:href="#DejaVuSans-63"/>
      <use x="457.394531" xlink:href="#DejaVuSans-79"/>
      <use x="516.574219" xlink:href="#DejaVuSans-20"/>
      <use x="548.361328" xlink:href="#DejaVuSans-28"/>
      <use x="587.375" xlink:href="#DejaVuSans-48"/>
      <use x="662.570312" xlink:href="#DejaVuSans-7a"/>
      <use x="715.060547" xlink:href="#DejaVuSans-29"/>
     </g>
    </g>
   </g>
   <g id="line2d_26">
    <path clip-path="url(#p209ce19587)" d="M 73.832727 258.100364 
L 74.181443 264.384 
L 74.530159 264.384 
L 74.878875 269.301628 
L 75.227591 266.421936 
L 75.576307 285.059191 
L 76.273739 282.751552 
L 76.622455 282.751552 
L 76.971171 256.187953 
L 77.319887 256.187953 
L 77.668603 232.6351 
L 78.017319 231.709091 
L 78.366035 278.626909 
L 79.063466 278.73071 
L 79.760898 278.416515 
L 80.109614 283.030748 
L 80.45833 283.234909 
L 80.807046 285.487533 
L 81.155762 285.539566 
L 81.504478 283.167343 
L 81.853194 281.939808 
L 82.20191 282.822115 
L 82.550626 284.432793 
L 82.899342 276.831012 
L 83.248058 276.709594 
L 83.596774 276.951273 
L 83.94549 276.338235 
L 84.294206 276.463223 
L 84.642922 224.464428 
L 85.340353 224.464428 
L 85.689069 222.112264 
L 86.037785 278.935579 
L 86.386501 259.859782 
L 86.735217 219.613091 
L 87.083933 218.304 
L 87.432649 283.368603 
L 87.781365 283.368603 
L 88.130081 283.821962 
L 88.478797 264.112764 
L 88.827513 264.112764 
L 89.176229 282.167877 
L 89.524945 281.862621 
L 89.873661 218.304 
L 90.222377 215.557055 
L 90.571093 283.758545 
L 90.919809 215.557055 
L 91.268525 260.524759 
L 91.617241 282.822115 
L 91.965956 281.862621 
L 92.663388 281.939808 
L 93.012104 285.113939 
L 93.36082 282.892165 
L 93.709536 285.168336 
L 94.058252 284.313917 
L 94.406968 276.463223 
L 94.755684 283.301994 
L 95.1044 282.961708 
L 95.453116 284.432793 
L 96.150548 284.550089 
L 96.499264 283.758545 
L 96.84798 283.821962 
L 97.196696 282.822115 
L 97.545412 278.202313 
L 97.894128 278.202313 
L 98.242843 280.001071 
L 98.591559 278.626909 
L 98.940275 250.840628 
L 99.288991 284.491636 
L 99.637707 275.955845 
L 99.986423 284.491636 
L 100.335139 284.491636 
L 100.683855 282.608864 
L 101.032571 282.822115 
L 101.381287 282.680471 
L 101.730003 282.822115 
L 102.078719 285.539566 
L 102.427435 275.825845 
L 102.776151 282.892165 
L 103.124867 283.030748 
L 103.473583 283.368603 
L 103.822299 285.168336 
L 104.171015 284.19343 
L 104.51973 285.539566 
L 104.868446 285.435173 
L 105.217162 266.661291 
L 105.565878 280.9728 
L 105.914594 280.888009 
L 106.26331 277.535797 
L 106.612026 282.317075 
L 106.960742 278.73071 
L 107.309458 285.539566 
L 107.658174 282.961708 
L 108.355606 283.030748 
L 108.704322 282.961708 
L 109.053038 283.630383 
L 109.401754 283.694687 
L 109.75047 285.113939 
L 110.099186 285.113939 
L 110.447902 277.188391 
L 111.145333 277.421077 
L 111.494049 285.004088 
L 111.842765 204.340364 
L 112.191481 260.194909 
L 112.540197 275.155948 
L 113.586345 275.155948 
L 113.935061 275.017846 
L 122.304244 275.017846 
L 122.65296 275.155948 
L 123.001676 275.017846 
L 124.745255 275.017846 
L 125.093971 275.155948 
L 125.791403 275.155948 
L 126.140119 275.017846 
L 126.488835 275.155948 
L 126.837551 275.017846 
L 127.883699 275.017846 
L 128.232415 275.155948 
L 134.858018 275.155948 
L 135.206734 275.017846 
L 135.55545 275.292648 
L 136.252882 275.292648 
L 136.601598 222.112264 
L 136.950313 275.017846 
L 137.299029 275.155948 
L 137.647745 275.017846 
L 137.996461 275.017846 
L 138.345177 261.48386 
L 138.693893 261.169116 
L 139.042609 261.169116 
L 139.391325 261.48386 
L 140.437473 261.48386 
L 140.786189 220.881902 
L 141.134905 261.169116 
L 141.483621 261.793799 
L 141.832337 260.849455 
L 142.181053 284.432793 
L 143.2272 284.373555 
L 143.575916 284.665836 
L 143.924632 283.368603 
L 144.273348 272.762182 
L 144.622064 285.168336 
L 144.97078 284.550089 
L 146.365644 284.608154 
L 146.71436 283.758545 
L 147.063076 283.758545 
L 147.411792 284.665836 
L 147.760508 273.859858 
L 148.109224 285.222385 
L 148.45794 284.071298 
L 148.806656 284.432793 
L 149.504087 284.608154 
L 149.852803 278.522182 
L 150.201519 285.539566 
L 150.550235 284.373555 
L 150.898951 284.665836 
L 151.247667 284.491636 
L 151.596383 284.550089 
L 151.945099 282.751552 
L 152.293815 284.432793 
L 152.642531 284.432793 
L 152.991247 279.036672 
L 153.339963 284.491636 
L 154.386111 284.373555 
L 155.083543 284.432793 
L 155.432259 284.780066 
L 155.780975 284.723139 
L 156.12969 283.88494 
L 156.478406 283.630383 
L 156.827122 283.565627 
L 157.175838 282.961708 
L 157.524554 282.961708 
L 157.87327 283.500415 
L 158.221986 278.73071 
L 158.570702 285.27609 
L 158.919418 246.525244 
L 159.268134 278.626909 
L 159.61685 285.539566 
L 159.965566 284.608154 
L 160.314282 283.167343 
L 160.662998 283.167343 
L 161.011714 228.776727 
L 161.36043 227.744205 
L 161.709146 265.684063 
L 163.452725 265.684063 
L 163.801441 265.93339 
L 173.216772 265.93339 
L 173.565488 266.179325 
L 173.914204 265.93339 
L 181.93467 265.93339 
L 182.283386 284.071298 
L 182.632102 265.93339 
L 182.980818 284.071298 
L 183.329534 265.93339 
L 184.375682 265.93339 
L 184.724398 284.071298 
L 186.119262 284.071298 
L 186.467978 265.93339 
L 187.16541 265.93339 
L 188.560273 264.915012 
L 188.908989 264.915012 
L 189.257705 264.651389 
L 189.955137 264.651389 
L 190.303853 264.915012 
L 191.001285 265.93339 
L 191.350001 266.179325 
L 191.698717 265.93339 
L 192.047433 265.93339 
L 192.396149 265.431273 
L 192.744865 260.524759 
L 193.093581 283.694687 
L 193.442297 283.758545 
L 193.791013 282.892165 
L 194.139729 264.112764 
L 194.488444 264.112764 
L 194.83716 284.313917 
L 195.185876 284.313917 
L 195.534592 283.500415 
L 195.883308 231.709091 
L 196.232024 230.758054 
L 196.58074 230.758054 
L 196.929456 283.88494 
L 197.278172 283.88494 
L 197.626888 283.565627 
L 198.32432 283.694687 
L 198.673036 284.550089 
L 199.021752 284.550089 
L 199.370468 278.416515 
L 199.719184 278.626909 
L 200.416616 278.73071 
L 200.765332 280.802534 
L 201.114047 279.814702 
L 201.462763 279.814702 
L 201.811479 284.608154 
L 202.160195 278.309897 
L 202.508911 278.626909 
L 203.206343 278.626909 
L 203.555059 281.140364 
L 203.903775 284.491636 
L 204.252491 284.491636 
L 204.601207 276.831012 
L 204.949923 278.309897 
L 205.298639 283.434742 
L 205.996071 285.487533 
L 206.344787 269.703888 
L 206.693503 271.751022 
L 207.042219 259.859782 
L 207.390934 277.30528 
L 207.73965 284.432793 
L 208.088366 284.491636 
L 208.437082 283.947486 
L 208.785798 283.630383 
L 209.134514 278.522182 
L 209.48323 275.427967 
L 209.831946 266.897455 
L 210.180662 285.113939 
L 210.529378 278.626909 
L 210.878094 278.522182 
L 211.22681 283.88494 
L 211.575526 283.099291 
L 211.924242 283.947486 
L 212.272958 277.188391 
L 212.621674 211.081429 
L 212.97039 255.375601 
L 213.319106 254.533975 
L 213.667822 278.202313 
L 214.713969 277.984199 
L 216.457549 277.984199 
L 216.806265 254.101686 
L 217.154981 278.093752 
L 217.503697 254.101686 
L 217.852413 277.984199 
L 218.201129 254.101686 
L 236.683074 254.101686 
L 237.03179 253.661465 
L 237.380506 277.873641 
L 237.729222 253.661465 
L 238.077938 253.661465 
L 238.426654 254.101686 
L 239.821517 254.101686 
L 240.170233 284.948628 
L 240.518949 254.533975 
L 240.867665 285.059191 
L 241.216381 285.113939 
L 241.565097 276.951273 
L 242.262529 276.587004 
L 242.611245 278.626909 
L 242.959961 277.421077 
L 243.308677 284.491636 
L 243.657393 277.421077 
L 244.006109 278.626909 
L 244.703541 278.522182 
L 245.052257 285.435173 
L 245.400973 276.951273 
L 245.749689 278.73071 
L 246.098404 264.915012 
L 246.44712 266.179325 
L 246.795836 283.947486 
L 247.144552 284.491636 
L 248.1907 284.550089 
L 248.539416 272.924191 
L 248.888132 282.167877 
L 249.236848 282.751552 
L 249.93428 284.491636 
L 250.980428 284.608154 
L 251.329144 278.833596 
L 251.67786 282.680471 
L 252.026576 271.924364 
L 252.375291 284.491636 
L 252.724007 284.491636 
L 253.072723 277.535797 
L 253.421439 284.491636 
L 253.770155 284.373555 
L 254.118871 284.373555 
L 254.467587 283.500415 
L 254.816303 283.630383 
L 255.165019 283.565627 
L 255.513735 285.059191 
L 255.862451 285.113939 
L 256.211167 284.892807 
L 256.559883 275.825845 
L 256.908599 275.825845 
L 257.257315 275.694545 
L 257.606031 275.825845 
L 257.954747 285.487533 
L 258.303463 281.223152 
L 258.652178 273.859858 
L 259.000894 285.539566 
L 259.34961 263.275123 
L 259.698326 262.987636 
L 260.047042 260.194909 
L 260.395758 282.464054 
L 260.744474 282.464054 
L 261.09319 273.554713 
L 261.441906 274.305531 
L 261.790622 285.27609 
L 262.139338 285.222385 
L 262.488054 279.036672 
L 263.534202 279.036672 
L 263.882918 263.837597 
L 264.231634 229.780961 
L 264.58035 237.71686 
L 264.929066 236.922182 
L 265.975213 236.922182 
L 266.323929 237.71686 
L 289.339182 237.71686 
L 289.687898 236.922182 
L 290.036614 236.922182 
L 290.38533 263.837597 
L 290.734046 264.384 
L 291.082761 266.179325 
L 291.431477 283.234909 
L 291.780193 283.234909 
L 292.128909 275.825845 
L 292.477625 284.665836 
L 292.826341 264.651389 
L 293.175057 264.915012 
L 293.523773 265.684063 
L 293.872489 284.608154 
L 294.221205 285.004088 
L 294.569921 284.550089 
L 294.918637 284.432793 
L 295.267353 266.897455 
L 295.616069 283.694687 
L 295.964785 284.491636 
L 296.662217 284.491636 
L 297.010933 266.421936 
L 297.359648 282.317075 
L 297.708364 275.694545 
L 298.05708 283.821962 
L 298.405796 283.947486 
L 298.754512 278.73071 
L 299.103228 278.833596 
L 300.149376 278.626909 
L 300.498092 285.435173 
L 300.846808 260.849455 
L 301.195524 283.301994 
L 301.54424 283.301994 
L 301.892956 283.630383 
L 302.241672 284.313917 
L 302.590388 280.001071 
L 303.28782 279.814702 
L 303.636535 284.432793 
L 304.333967 284.432793 
L 304.682683 285.222385 
L 305.031399 284.550089 
L 305.728831 284.491636 
L 306.077547 283.758545 
L 306.774979 283.694687 
L 307.123695 285.27609 
L 307.472411 263.275123 
L 307.821127 259.859782 
L 308.169843 259.859782 
L 308.518559 283.758545 
L 308.867275 284.608154 
L 309.215991 283.694687 
L 309.564707 285.168336 
L 309.913423 274.009996 
L 310.262138 274.009996 
L 310.610854 282.892165 
L 310.95957 282.892165 
L 311.308286 263.837597 
L 311.657002 263.837597 
L 312.005718 263.558413 
L 312.354434 263.837597 
L 312.70315 200.580923 
L 313.051866 223.3059 
L 313.400582 223.3059 
L 313.749298 222.112264 
L 314.098014 222.112264 
L 314.44673 220.881902 
L 337.810698 220.881902 
L 338.159414 261.793799 
L 338.50813 220.881902 
L 338.856846 261.793799 
L 339.205562 220.881902 
L 339.554278 275.155948 
L 339.902994 269.703888 
L 343.390153 269.703888 
L 343.738869 261.48386 
L 344.087585 269.703888 
L 344.436301 269.703888 
L 344.785017 248.226078 
L 345.133733 302.085818 
L 345.482449 248.226078 
L 346.877313 248.226078 
L 347.226029 220.881902 
L 347.574745 248.226078 
L 347.923461 220.881902 
L 348.272177 302.085818 
L 348.620892 302.085818 
L 348.969608 275.155948 
L 349.318324 278.935579 
L 349.66704 278.833596 
L 350.015756 278.935579 
L 350.364472 278.833596 
L 350.713188 261.169116 
L 351.061904 278.73071 
L 352.108052 278.309897 
L 352.456768 284.373555 
L 353.502916 284.491636 
L 353.851632 284.432793 
L 354.200348 263.558413 
L 354.549064 284.432793 
L 354.89778 280.888009 
L 355.246495 284.491636 
L 355.595211 284.608154 
L 355.943927 284.550089 
L 356.292643 284.608154 
L 356.641359 284.550089 
L 356.990075 220.881902 
L 357.338791 223.3059 
L 357.687507 224.464428 
L 358.036223 223.3059 
L 358.733655 223.3059 
L 359.082371 222.112264 
L 359.431087 261.169116 
L 359.779803 222.112264 
L 360.128519 222.112264 
L 360.477235 261.48386 
L 360.825951 261.48386 
L 361.174667 260.524759 
L 361.523382 274.594909 
L 361.872098 194.366338 
L 362.220814 265.93339 
L 385.236067 265.93339 
L 385.584783 194.366338 
L 385.933499 194.366338 
L 386.282215 192.122182 
L 386.630931 192.122182 
L 386.979647 265.431273 
L 387.328362 264.915012 
L 387.677078 265.174947 
L 388.025794 264.915012 
L 388.37451 264.384 
L 388.723226 265.431273 
L 389.071942 265.431273 
L 389.769374 260.849455 
L 390.11809 283.821962 
L 390.815522 283.565627 
L 391.164238 283.099291 
L 391.512954 223.3059 
L 391.86167 223.3059 
L 392.210386 284.253877 
L 392.559102 284.132571 
L 392.907818 229.780961 
L 393.256534 225.589375 
L 393.605249 226.682182 
L 393.953965 225.589375 
L 394.302681 226.682182 
L 394.651397 226.682182 
L 395.000113 224.464428 
L 395.348829 261.169116 
L 396.046261 260.524759 
L 396.394977 259.859782 
L 396.743693 260.194909 
L 397.092409 283.758545 
L 397.441125 283.630383 
L 397.789841 281.056916 
L 398.138557 262.399694 
L 398.487273 262.099041 
L 398.487273 262.099041 
" style="fill:none;stroke:#1f77b4;stroke-linecap:square;stroke-width:1.5;"/>
   </g>
   <g id="patch_8">
    <path d="M 57.6 307.584 
L 57.6 186.624 
" style="fill:none;stroke:#000000;stroke-linecap:square;stroke-linejoin:miter;stroke-width:0.8;"/>
   </g>
   <g id="patch_9">
    <path d="M 414.72 307.584 
L 414.72 186.624 
" style="fill:none;stroke:#000000;stroke-linecap:square;stroke-linejoin:miter;stroke-width:0.8;"/>
   </g>
   <g id="patch_10">
    <path d="M 57.6 307.584 
L 414.72 307.584 
" style="fill:none;stroke:#000000;stroke-linecap:square;stroke-linejoin:miter;stroke-width:0.8;"/>
   </g>
   <g id="patch_11">
    <path d="M 57.6 186.624 
L 414.72 186.624 
" style="fill:none;stroke:#000000;stroke-linecap:square;stroke-linejoin:miter;stroke-width:0.8;"/>
   </g>
   <g id="text_29">
    <!-- Index of minimums of CMND -->
    <g transform="translate(150.373125 180.624)scale(0.12 -0.12)">
     <defs>
      <path d="M 628 4666 
L 1259 4666 
L 1259 0 
L 628 0 
L 628 4666 
z
" id="DejaVuSans-49" transform="scale(0.015625)"/>
      <path d="M 3513 3500 
L 2247 1797 
L 3578 0 
L 2900 0 
L 1881 1375 
L 863 0 
L 184 0 
L 1544 1831 
L 300 3500 
L 978 3500 
L 1906 2253 
L 2834 3500 
L 3513 3500 
z
" id="DejaVuSans-78" transform="scale(0.015625)"/>
      <path d="M 2375 4863 
L 2375 4384 
L 1825 4384 
Q 1516 4384 1395 4259 
Q 1275 4134 1275 3809 
L 1275 3500 
L 2222 3500 
L 2222 3053 
L 1275 3053 
L 1275 0 
L 697 0 
L 697 3053 
L 147 3053 
L 147 3500 
L 697 3500 
L 697 3744 
Q 697 4328 969 4595 
Q 1241 4863 1831 4863 
L 2375 4863 
z
" id="DejaVuSans-66" transform="scale(0.015625)"/>
      <path d="M 4122 4306 
L 4122 3641 
Q 3803 3938 3442 4084 
Q 3081 4231 2675 4231 
Q 1875 4231 1450 3742 
Q 1025 3253 1025 2328 
Q 1025 1406 1450 917 
Q 1875 428 2675 428 
Q 3081 428 3442 575 
Q 3803 722 4122 1019 
L 4122 359 
Q 3791 134 3420 21 
Q 3050 -91 2638 -91 
Q 1578 -91 968 557 
Q 359 1206 359 2328 
Q 359 3453 968 4101 
Q 1578 4750 2638 4750 
Q 3056 4750 3426 4639 
Q 3797 4528 4122 4306 
z
" id="DejaVuSans-43" transform="scale(0.015625)"/>
      <path d="M 628 4666 
L 1569 4666 
L 2759 1491 
L 3956 4666 
L 4897 4666 
L 4897 0 
L 4281 0 
L 4281 4097 
L 3078 897 
L 2444 897 
L 1241 4097 
L 1241 0 
L 628 0 
L 628 4666 
z
" id="DejaVuSans-4d" transform="scale(0.015625)"/>
      <path d="M 628 4666 
L 1478 4666 
L 3547 763 
L 3547 4666 
L 4159 4666 
L 4159 0 
L 3309 0 
L 1241 3903 
L 1241 0 
L 628 0 
L 628 4666 
z
" id="DejaVuSans-4e" transform="scale(0.015625)"/>
      <path d="M 1259 4147 
L 1259 519 
L 2022 519 
Q 2988 519 3436 956 
Q 3884 1394 3884 2338 
Q 3884 3275 3436 3711 
Q 2988 4147 2022 4147 
L 1259 4147 
z
M 628 4666 
L 1925 4666 
Q 3281 4666 3915 4102 
Q 4550 3538 4550 2338 
Q 4550 1131 3912 565 
Q 3275 0 1925 0 
L 628 0 
L 628 4666 
z
" id="DejaVuSans-44" transform="scale(0.015625)"/>
     </defs>
     <use xlink:href="#DejaVuSans-49"/>
     <use x="29.492188" xlink:href="#DejaVuSans-6e"/>
     <use x="92.871094" xlink:href="#DejaVuSans-64"/>
     <use x="156.347656" xlink:href="#DejaVuSans-65"/>
     <use x="216.121094" xlink:href="#DejaVuSans-78"/>
     <use x="275.300781" xlink:href="#DejaVuSans-20"/>
     <use x="307.087891" xlink:href="#DejaVuSans-6f"/>
     <use x="368.269531" xlink:href="#DejaVuSans-66"/>
     <use x="403.474609" xlink:href="#DejaVuSans-20"/>
     <use x="435.261719" xlink:href="#DejaVuSans-6d"/>
     <use x="532.673828" xlink:href="#DejaVuSans-69"/>
     <use x="560.457031" xlink:href="#DejaVuSans-6e"/>
     <use x="623.835938" xlink:href="#DejaVuSans-69"/>
     <use x="651.619141" xlink:href="#DejaVuSans-6d"/>
     <use x="749.03125" xlink:href="#DejaVuSans-75"/>
     <use x="812.410156" xlink:href="#DejaVuSans-6d"/>
     <use x="909.822266" xlink:href="#DejaVuSans-73"/>
     <use x="961.921875" xlink:href="#DejaVuSans-20"/>
     <use x="993.708984" xlink:href="#DejaVuSans-6f"/>
     <use x="1054.890625" xlink:href="#DejaVuSans-66"/>
     <use x="1090.095703" xlink:href="#DejaVuSans-20"/>
     <use x="1121.882812" xlink:href="#DejaVuSans-43"/>
     <use x="1191.707031" xlink:href="#DejaVuSans-4d"/>
     <use x="1277.986328" xlink:href="#DejaVuSans-4e"/>
     <use x="1352.791016" xlink:href="#DejaVuSans-44"/>
    </g>
   </g>
  </g>
 </g>
 <defs>
  <clipPath id="p72b8cf5da4">
   <rect height="120.96" width="357.12" x="57.6" y="41.472"/>
  </clipPath>
  <clipPath id="p209ce19587">
   <rect height="120.96" width="357.12" x="57.6" y="186.624"/>
  </clipPath>
 </defs>
</svg>
