<?xml version="1.0" encoding="utf-8" standalone="no"?>
<!DOCTYPE svg PUBLIC "-//W3C//DTD SVG 1.1//EN"
  "http://www.w3.org/Graphics/SVG/1.1/DTD/svg11.dtd">
<svg height="345.6pt" version="1.1" viewBox="0 0 460.8 345.6" width="460.8pt" xmlns="http://www.w3.org/2000/svg" xmlns:xlink="http://www.w3.org/1999/xlink">
 <metadata>
  <rdf:RDF xmlns:cc="http://creativecommons.org/ns#" xmlns:dc="http://purl.org/dc/elements/1.1/" xmlns:rdf="http://www.w3.org/1999/02/22-rdf-syntax-ns#">
   <cc:Work>
    <dc:type rdf:resource="http://purl.org/dc/dcmitype/StillImage"/>
    <dc:date>2021-04-08T06:56:58.985165</dc:date>
    <dc:format>image/svg+xml</dc:format>
    <dc:creator>
     <cc:Agent>
      <dc:title>Matplotlib v3.4.0, https://matplotlib.org/</dc:title>
     </cc:Agent>
    </dc:creator>
   </cc:Work>
  </rdf:RDF>
 </metadata>
 <defs>
  <style type="text/css">*{stroke-linecap:butt;stroke-linejoin:round;}</style>
 </defs>
 <g id="figure_1">
  <g id="patch_1">
   <path d="M 0 345.6 
L 460.8 345.6 
L 460.8 0 
L 0 0 
z
" style="fill:#ffffff;"/>
  </g>
  <g id="axes_1">
   <g id="patch_2">
    <path d="M 57.6 162.432 
L 414.72 162.432 
L 414.72 41.472 
L 57.6 41.472 
z
" style="fill:#ffffff;"/>
   </g>
   <g id="matplotlib.axis_1">
    <g id="xtick_1">
     <g id="line2d_1">
      <defs>
       <path d="M 0 0 
L 0 3.5 
" id="m94f1f4b924" style="stroke:#000000;stroke-width:0.8;"/>
      </defs>
      <g>
       <use style="stroke:#000000;stroke-width:0.8;" x="73.832727" xlink:href="#m94f1f4b924" y="162.432"/>
      </g>
     </g>
     <g id="text_1">
      <!-- 0 -->
      <g transform="translate(70.651477 177.030437)scale(0.1 -0.1)">
       <defs>
        <path d="M 2034 4250 
Q 1547 4250 1301 3770 
Q 1056 3291 1056 2328 
Q 1056 1369 1301 889 
Q 1547 409 2034 409 
Q 2525 409 2770 889 
Q 3016 1369 3016 2328 
Q 3016 3291 2770 3770 
Q 2525 4250 2034 4250 
z
M 2034 4750 
Q 2819 4750 3233 4129 
Q 3647 3509 3647 2328 
Q 3647 1150 3233 529 
Q 2819 -91 2034 -91 
Q 1250 -91 836 529 
Q 422 1150 422 2328 
Q 422 3509 836 4129 
Q 1250 4750 2034 4750 
z
" id="DejaVuSans-30" transform="scale(0.015625)"/>
       </defs>
       <use xlink:href="#DejaVuSans-30"/>
      </g>
     </g>
    </g>
    <g id="xtick_2">
     <g id="line2d_2">
      <g>
       <use style="stroke:#000000;stroke-width:0.8;" x="117.235941" xlink:href="#m94f1f4b924" y="162.432"/>
      </g>
     </g>
     <g id="text_2">
      <!-- 2 -->
      <g transform="translate(114.054691 177.030437)scale(0.1 -0.1)">
       <defs>
        <path d="M 1228 531 
L 3431 531 
L 3431 0 
L 469 0 
L 469 531 
Q 828 903 1448 1529 
Q 2069 2156 2228 2338 
Q 2531 2678 2651 2914 
Q 2772 3150 2772 3378 
Q 2772 3750 2511 3984 
Q 2250 4219 1831 4219 
Q 1534 4219 1204 4116 
Q 875 4013 500 3803 
L 500 4441 
Q 881 4594 1212 4672 
Q 1544 4750 1819 4750 
Q 2544 4750 2975 4387 
Q 3406 4025 3406 3419 
Q 3406 3131 3298 2873 
Q 3191 2616 2906 2266 
Q 2828 2175 2409 1742 
Q 1991 1309 1228 531 
z
" id="DejaVuSans-32" transform="scale(0.015625)"/>
       </defs>
       <use xlink:href="#DejaVuSans-32"/>
      </g>
     </g>
    </g>
    <g id="xtick_3">
     <g id="line2d_3">
      <g>
       <use style="stroke:#000000;stroke-width:0.8;" x="160.639154" xlink:href="#m94f1f4b924" y="162.432"/>
      </g>
     </g>
     <g id="text_3">
      <!-- 4 -->
      <g transform="translate(157.457904 177.030437)scale(0.1 -0.1)">
       <defs>
        <path d="M 2419 4116 
L 825 1625 
L 2419 1625 
L 2419 4116 
z
M 2253 4666 
L 3047 4666 
L 3047 1625 
L 3713 1625 
L 3713 1100 
L 3047 1100 
L 3047 0 
L 2419 0 
L 2419 1100 
L 313 1100 
L 313 1709 
L 2253 4666 
z
" id="DejaVuSans-34" transform="scale(0.015625)"/>
       </defs>
       <use xlink:href="#DejaVuSans-34"/>
      </g>
     </g>
    </g>
    <g id="xtick_4">
     <g id="line2d_4">
      <g>
       <use style="stroke:#000000;stroke-width:0.8;" x="204.042367" xlink:href="#m94f1f4b924" y="162.432"/>
      </g>
     </g>
     <g id="text_4">
      <!-- 6 -->
      <g transform="translate(200.861117 177.030437)scale(0.1 -0.1)">
       <defs>
        <path d="M 2113 2584 
Q 1688 2584 1439 2293 
Q 1191 2003 1191 1497 
Q 1191 994 1439 701 
Q 1688 409 2113 409 
Q 2538 409 2786 701 
Q 3034 994 3034 1497 
Q 3034 2003 2786 2293 
Q 2538 2584 2113 2584 
z
M 3366 4563 
L 3366 3988 
Q 3128 4100 2886 4159 
Q 2644 4219 2406 4219 
Q 1781 4219 1451 3797 
Q 1122 3375 1075 2522 
Q 1259 2794 1537 2939 
Q 1816 3084 2150 3084 
Q 2853 3084 3261 2657 
Q 3669 2231 3669 1497 
Q 3669 778 3244 343 
Q 2819 -91 2113 -91 
Q 1303 -91 875 529 
Q 447 1150 447 2328 
Q 447 3434 972 4092 
Q 1497 4750 2381 4750 
Q 2619 4750 2861 4703 
Q 3103 4656 3366 4563 
z
" id="DejaVuSans-36" transform="scale(0.015625)"/>
       </defs>
       <use xlink:href="#DejaVuSans-36"/>
      </g>
     </g>
    </g>
    <g id="xtick_5">
     <g id="line2d_5">
      <g>
       <use style="stroke:#000000;stroke-width:0.8;" x="247.445581" xlink:href="#m94f1f4b924" y="162.432"/>
      </g>
     </g>
     <g id="text_5">
      <!-- 8 -->
      <g transform="translate(244.264331 177.030437)scale(0.1 -0.1)">
       <defs>
        <path d="M 2034 2216 
Q 1584 2216 1326 1975 
Q 1069 1734 1069 1313 
Q 1069 891 1326 650 
Q 1584 409 2034 409 
Q 2484 409 2743 651 
Q 3003 894 3003 1313 
Q 3003 1734 2745 1975 
Q 2488 2216 2034 2216 
z
M 1403 2484 
Q 997 2584 770 2862 
Q 544 3141 544 3541 
Q 544 4100 942 4425 
Q 1341 4750 2034 4750 
Q 2731 4750 3128 4425 
Q 3525 4100 3525 3541 
Q 3525 3141 3298 2862 
Q 3072 2584 2669 2484 
Q 3125 2378 3379 2068 
Q 3634 1759 3634 1313 
Q 3634 634 3220 271 
Q 2806 -91 2034 -91 
Q 1263 -91 848 271 
Q 434 634 434 1313 
Q 434 1759 690 2068 
Q 947 2378 1403 2484 
z
M 1172 3481 
Q 1172 3119 1398 2916 
Q 1625 2713 2034 2713 
Q 2441 2713 2670 2916 
Q 2900 3119 2900 3481 
Q 2900 3844 2670 4047 
Q 2441 4250 2034 4250 
Q 1625 4250 1398 4047 
Q 1172 3844 1172 3481 
z
" id="DejaVuSans-38" transform="scale(0.015625)"/>
       </defs>
       <use xlink:href="#DejaVuSans-38"/>
      </g>
     </g>
    </g>
    <g id="xtick_6">
     <g id="line2d_6">
      <g>
       <use style="stroke:#000000;stroke-width:0.8;" x="290.848794" xlink:href="#m94f1f4b924" y="162.432"/>
      </g>
     </g>
     <g id="text_6">
      <!-- 10 -->
      <g transform="translate(284.486294 177.030437)scale(0.1 -0.1)">
       <defs>
        <path d="M 794 531 
L 1825 531 
L 1825 4091 
L 703 3866 
L 703 4441 
L 1819 4666 
L 2450 4666 
L 2450 531 
L 3481 531 
L 3481 0 
L 794 0 
L 794 531 
z
" id="DejaVuSans-31" transform="scale(0.015625)"/>
       </defs>
       <use xlink:href="#DejaVuSans-31"/>
       <use x="63.623047" xlink:href="#DejaVuSans-30"/>
      </g>
     </g>
    </g>
    <g id="xtick_7">
     <g id="line2d_7">
      <g>
       <use style="stroke:#000000;stroke-width:0.8;" x="334.252007" xlink:href="#m94f1f4b924" y="162.432"/>
      </g>
     </g>
     <g id="text_7">
      <!-- 12 -->
      <g transform="translate(327.889507 177.030437)scale(0.1 -0.1)">
       <use xlink:href="#DejaVuSans-31"/>
       <use x="63.623047" xlink:href="#DejaVuSans-32"/>
      </g>
     </g>
    </g>
    <g id="xtick_8">
     <g id="line2d_8">
      <g>
       <use style="stroke:#000000;stroke-width:0.8;" x="377.655221" xlink:href="#m94f1f4b924" y="162.432"/>
      </g>
     </g>
     <g id="text_8">
      <!-- 14 -->
      <g transform="translate(371.292721 177.030437)scale(0.1 -0.1)">
       <use xlink:href="#DejaVuSans-31"/>
       <use x="63.623047" xlink:href="#DejaVuSans-34"/>
      </g>
     </g>
    </g>
   </g>
   <g id="matplotlib.axis_2">
    <g id="ytick_1">
     <g id="line2d_9">
      <defs>
       <path d="M 0 0 
L -3.5 0 
" id="m5afc3cb951" style="stroke:#000000;stroke-width:0.8;"/>
      </defs>
      <g>
       <use style="stroke:#000000;stroke-width:0.8;" x="57.6" xlink:href="#m5afc3cb951" y="156.933818"/>
      </g>
     </g>
     <g id="text_9">
      <!-- 0 -->
      <g transform="translate(44.2375 160.733037)scale(0.1 -0.1)">
       <use xlink:href="#DejaVuSans-30"/>
      </g>
     </g>
    </g>
    <g id="ytick_2">
     <g id="line2d_10">
      <g>
       <use style="stroke:#000000;stroke-width:0.8;" x="57.6" xlink:href="#m5afc3cb951" y="129.442909"/>
      </g>
     </g>
     <g id="text_10">
      <!-- 100 -->
      <g transform="translate(31.5125 133.242128)scale(0.1 -0.1)">
       <use xlink:href="#DejaVuSans-31"/>
       <use x="63.623047" xlink:href="#DejaVuSans-30"/>
       <use x="127.246094" xlink:href="#DejaVuSans-30"/>
      </g>
     </g>
    </g>
    <g id="ytick_3">
     <g id="line2d_11">
      <g>
       <use style="stroke:#000000;stroke-width:0.8;" x="57.6" xlink:href="#m5afc3cb951" y="101.952"/>
      </g>
     </g>
     <g id="text_11">
      <!-- 200 -->
      <g transform="translate(31.5125 105.751219)scale(0.1 -0.1)">
       <use xlink:href="#DejaVuSans-32"/>
       <use x="63.623047" xlink:href="#DejaVuSans-30"/>
       <use x="127.246094" xlink:href="#DejaVuSans-30"/>
      </g>
     </g>
    </g>
    <g id="ytick_4">
     <g id="line2d_12">
      <g>
       <use style="stroke:#000000;stroke-width:0.8;" x="57.6" xlink:href="#m5afc3cb951" y="74.461091"/>
      </g>
     </g>
     <g id="text_12">
      <!-- 300 -->
      <g transform="translate(31.5125 78.26031)scale(0.1 -0.1)">
       <defs>
        <path d="M 2597 2516 
Q 3050 2419 3304 2112 
Q 3559 1806 3559 1356 
Q 3559 666 3084 287 
Q 2609 -91 1734 -91 
Q 1441 -91 1130 -33 
Q 819 25 488 141 
L 488 750 
Q 750 597 1062 519 
Q 1375 441 1716 441 
Q 2309 441 2620 675 
Q 2931 909 2931 1356 
Q 2931 1769 2642 2001 
Q 2353 2234 1838 2234 
L 1294 2234 
L 1294 2753 
L 1863 2753 
Q 2328 2753 2575 2939 
Q 2822 3125 2822 3475 
Q 2822 3834 2567 4026 
Q 2313 4219 1838 4219 
Q 1578 4219 1281 4162 
Q 984 4106 628 3988 
L 628 4550 
Q 988 4650 1302 4700 
Q 1616 4750 1894 4750 
Q 2613 4750 3031 4423 
Q 3450 4097 3450 3541 
Q 3450 3153 3228 2886 
Q 3006 2619 2597 2516 
z
" id="DejaVuSans-33" transform="scale(0.015625)"/>
       </defs>
       <use xlink:href="#DejaVuSans-33"/>
       <use x="63.623047" xlink:href="#DejaVuSans-30"/>
       <use x="127.246094" xlink:href="#DejaVuSans-30"/>
      </g>
     </g>
    </g>
    <g id="ytick_5">
     <g id="line2d_13">
      <g>
       <use style="stroke:#000000;stroke-width:0.8;" x="57.6" xlink:href="#m5afc3cb951" y="46.970182"/>
      </g>
     </g>
     <g id="text_13">
      <!-- 400 -->
      <g transform="translate(31.5125 50.769401)scale(0.1 -0.1)">
       <use xlink:href="#DejaVuSans-34"/>
       <use x="63.623047" xlink:href="#DejaVuSans-30"/>
       <use x="127.246094" xlink:href="#DejaVuSans-30"/>
      </g>
     </g>
    </g>
    <g id="text_14">
     <!-- Frequency (Hz) -->
     <g transform="translate(25.432812 139.656688)rotate(-90)scale(0.1 -0.1)">
      <defs>
       <path d="M 628 4666 
L 3309 4666 
L 3309 4134 
L 1259 4134 
L 1259 2759 
L 3109 2759 
L 3109 2228 
L 1259 2228 
L 1259 0 
L 628 0 
L 628 4666 
z
" id="DejaVuSans-46" transform="scale(0.015625)"/>
       <path d="M 2631 2963 
Q 2534 3019 2420 3045 
Q 2306 3072 2169 3072 
Q 1681 3072 1420 2755 
Q 1159 2438 1159 1844 
L 1159 0 
L 581 0 
L 581 3500 
L 1159 3500 
L 1159 2956 
Q 1341 3275 1631 3429 
Q 1922 3584 2338 3584 
Q 2397 3584 2469 3576 
Q 2541 3569 2628 3553 
L 2631 2963 
z
" id="DejaVuSans-72" transform="scale(0.015625)"/>
       <path d="M 3597 1894 
L 3597 1613 
L 953 1613 
Q 991 1019 1311 708 
Q 1631 397 2203 397 
Q 2534 397 2845 478 
Q 3156 559 3463 722 
L 3463 178 
Q 3153 47 2828 -22 
Q 2503 -91 2169 -91 
Q 1331 -91 842 396 
Q 353 884 353 1716 
Q 353 2575 817 3079 
Q 1281 3584 2069 3584 
Q 2775 3584 3186 3129 
Q 3597 2675 3597 1894 
z
M 3022 2063 
Q 3016 2534 2758 2815 
Q 2500 3097 2075 3097 
Q 1594 3097 1305 2825 
Q 1016 2553 972 2059 
L 3022 2063 
z
" id="DejaVuSans-65" transform="scale(0.015625)"/>
       <path d="M 947 1747 
Q 947 1113 1208 752 
Q 1469 391 1925 391 
Q 2381 391 2643 752 
Q 2906 1113 2906 1747 
Q 2906 2381 2643 2742 
Q 2381 3103 1925 3103 
Q 1469 3103 1208 2742 
Q 947 2381 947 1747 
z
M 2906 525 
Q 2725 213 2448 61 
Q 2172 -91 1784 -91 
Q 1150 -91 751 415 
Q 353 922 353 1747 
Q 353 2572 751 3078 
Q 1150 3584 1784 3584 
Q 2172 3584 2448 3432 
Q 2725 3281 2906 2969 
L 2906 3500 
L 3481 3500 
L 3481 -1331 
L 2906 -1331 
L 2906 525 
z
" id="DejaVuSans-71" transform="scale(0.015625)"/>
       <path d="M 544 1381 
L 544 3500 
L 1119 3500 
L 1119 1403 
Q 1119 906 1312 657 
Q 1506 409 1894 409 
Q 2359 409 2629 706 
Q 2900 1003 2900 1516 
L 2900 3500 
L 3475 3500 
L 3475 0 
L 2900 0 
L 2900 538 
Q 2691 219 2414 64 
Q 2138 -91 1772 -91 
Q 1169 -91 856 284 
Q 544 659 544 1381 
z
M 1991 3584 
L 1991 3584 
z
" id="DejaVuSans-75" transform="scale(0.015625)"/>
       <path d="M 3513 2113 
L 3513 0 
L 2938 0 
L 2938 2094 
Q 2938 2591 2744 2837 
Q 2550 3084 2163 3084 
Q 1697 3084 1428 2787 
Q 1159 2491 1159 1978 
L 1159 0 
L 581 0 
L 581 3500 
L 1159 3500 
L 1159 2956 
Q 1366 3272 1645 3428 
Q 1925 3584 2291 3584 
Q 2894 3584 3203 3211 
Q 3513 2838 3513 2113 
z
" id="DejaVuSans-6e" transform="scale(0.015625)"/>
       <path d="M 3122 3366 
L 3122 2828 
Q 2878 2963 2633 3030 
Q 2388 3097 2138 3097 
Q 1578 3097 1268 2742 
Q 959 2388 959 1747 
Q 959 1106 1268 751 
Q 1578 397 2138 397 
Q 2388 397 2633 464 
Q 2878 531 3122 666 
L 3122 134 
Q 2881 22 2623 -34 
Q 2366 -91 2075 -91 
Q 1284 -91 818 406 
Q 353 903 353 1747 
Q 353 2603 823 3093 
Q 1294 3584 2113 3584 
Q 2378 3584 2631 3529 
Q 2884 3475 3122 3366 
z
" id="DejaVuSans-63" transform="scale(0.015625)"/>
       <path d="M 2059 -325 
Q 1816 -950 1584 -1140 
Q 1353 -1331 966 -1331 
L 506 -1331 
L 506 -850 
L 844 -850 
Q 1081 -850 1212 -737 
Q 1344 -625 1503 -206 
L 1606 56 
L 191 3500 
L 800 3500 
L 1894 763 
L 2988 3500 
L 3597 3500 
L 2059 -325 
z
" id="DejaVuSans-79" transform="scale(0.015625)"/>
       <path id="DejaVuSans-20" transform="scale(0.015625)"/>
       <path d="M 1984 4856 
Q 1566 4138 1362 3434 
Q 1159 2731 1159 2009 
Q 1159 1288 1364 580 
Q 1569 -128 1984 -844 
L 1484 -844 
Q 1016 -109 783 600 
Q 550 1309 550 2009 
Q 550 2706 781 3412 
Q 1013 4119 1484 4856 
L 1984 4856 
z
" id="DejaVuSans-28" transform="scale(0.015625)"/>
       <path d="M 628 4666 
L 1259 4666 
L 1259 2753 
L 3553 2753 
L 3553 4666 
L 4184 4666 
L 4184 0 
L 3553 0 
L 3553 2222 
L 1259 2222 
L 1259 0 
L 628 0 
L 628 4666 
z
" id="DejaVuSans-48" transform="scale(0.015625)"/>
       <path d="M 353 3500 
L 3084 3500 
L 3084 2975 
L 922 459 
L 3084 459 
L 3084 0 
L 275 0 
L 275 525 
L 2438 3041 
L 353 3041 
L 353 3500 
z
" id="DejaVuSans-7a" transform="scale(0.015625)"/>
       <path d="M 513 4856 
L 1013 4856 
Q 1481 4119 1714 3412 
Q 1947 2706 1947 2009 
Q 1947 1309 1714 600 
Q 1481 -109 1013 -844 
L 513 -844 
Q 928 -128 1133 580 
Q 1338 1288 1338 2009 
Q 1338 2731 1133 3434 
Q 928 4138 513 4856 
z
" id="DejaVuSans-29" transform="scale(0.015625)"/>
      </defs>
      <use xlink:href="#DejaVuSans-46"/>
      <use x="50.269531" xlink:href="#DejaVuSans-72"/>
      <use x="89.132812" xlink:href="#DejaVuSans-65"/>
      <use x="150.65625" xlink:href="#DejaVuSans-71"/>
      <use x="214.132812" xlink:href="#DejaVuSans-75"/>
      <use x="277.511719" xlink:href="#DejaVuSans-65"/>
      <use x="339.035156" xlink:href="#DejaVuSans-6e"/>
      <use x="402.414062" xlink:href="#DejaVuSans-63"/>
      <use x="457.394531" xlink:href="#DejaVuSans-79"/>
      <use x="516.574219" xlink:href="#DejaVuSans-20"/>
      <use x="548.361328" xlink:href="#DejaVuSans-28"/>
      <use x="587.375" xlink:href="#DejaVuSans-48"/>
      <use x="662.570312" xlink:href="#DejaVuSans-7a"/>
      <use x="715.060547" xlink:href="#DejaVuSans-29"/>
     </g>
    </g>
   </g>
   <g id="line2d_14">
    <path clip-path="url(#p43ebc360be)" d="M 73.832727 67.167584 
L 75.576307 67.167584 
L 75.925023 65.297455 
L 76.273739 65.297455 
L 76.622455 67.167584 
L 76.971171 67.167584 
L 77.319887 72.346406 
L 77.668603 82.3822 
L 78.017319 87.115636 
L 78.366035 126.388364 
L 78.714751 111.587989 
L 79.063466 126.806795 
L 79.412182 127.01174 
L 81.853194 127.01174 
L 82.20191 123.862048 
L 82.550626 124.108852 
L 82.899342 126.599022 
L 83.248058 99.05822 
L 83.596774 88.206545 
L 83.94549 99.05822 
L 84.294206 122.570182 
L 84.642922 105.787941 
L 84.991638 110.63334 
L 85.340353 105.787941 
L 85.689069 106.375824 
L 86.037785 99.05822 
L 86.386501 122.570182 
L 87.083933 123.098853 
L 87.432649 123.098853 
L 87.781365 97.494015 
L 88.130081 125.289606 
L 88.827513 85.989537 
L 89.176229 85.989537 
L 89.524945 89.263888 
L 89.873661 89.263888 
L 90.222377 123.862048 
L 90.571093 121.461677 
L 90.919809 121.461677 
L 91.268525 125.289606 
L 91.617241 112.948364 
L 92.314672 112.948364 
L 93.012104 129.782303 
L 93.36082 112.050701 
L 94.058252 112.948364 
L 94.406968 117.307283 
L 94.755684 116.58019 
L 95.1044 112.050701 
L 95.453116 101.256028 
L 95.801832 126.806795 
L 96.150548 88.206545 
L 96.499264 117.661091 
L 96.84798 118.008637 
L 97.196696 118.685597 
L 97.545412 118.685597 
L 97.894128 98.286545 
L 98.591559 98.286545 
L 99.288991 85.989537 
L 99.637707 90.28919 
L 100.335139 90.28919 
L 100.683855 99.809851 
L 101.032571 87.115636 
L 101.381287 93.186783 
L 101.730003 92.249326 
L 102.078719 93.186783 
L 102.427435 92.249326 
L 102.776151 92.249326 
L 103.124867 93.186783 
L 103.473583 92.249326 
L 103.822299 93.186783 
L 104.51973 91.283886 
L 104.868446 84.826516 
L 105.217162 122.836567 
L 105.565878 123.098853 
L 105.914594 109.63763 
L 106.26331 125.515636 
L 106.612026 125.515636 
L 106.960742 88.206545 
L 107.309458 89.263888 
L 107.658174 91.283886 
L 108.00689 92.249326 
L 108.704322 92.249326 
L 109.401754 105.787941 
L 109.75047 123.862048 
L 110.099186 123.862048 
L 110.447902 125.515636 
L 110.796618 95.842909 
L 111.145333 89.263888 
L 111.494049 95.842909 
L 111.842765 85.989537 
L 112.191481 85.989537 
L 112.540197 99.809851 
L 112.888913 99.05822 
L 113.237629 99.05822 
L 113.586345 92.249326 
L 113.935061 115.825917 
L 114.283777 121.173286 
L 114.632493 95.842909 
L 114.981209 95.842909 
L 115.329925 94.097455 
L 115.678641 94.982474 
L 116.027357 87.115636 
L 116.724789 89.263888 
L 117.073505 92.249326 
L 117.42222 91.283886 
L 117.770936 83.624727 
L 118.119652 100.54221 
L 118.468368 83.624727 
L 118.817084 84.826516 
L 119.1658 84.826516 
L 119.514516 85.989537 
L 119.863232 121.745455 
L 120.211948 87.115636 
L 120.560664 106.375824 
L 120.90938 88.206545 
L 121.258096 88.206545 
L 121.606812 95.842909 
L 121.955528 95.842909 
L 122.304244 94.097455 
L 122.65296 88.206545 
L 123.001676 88.206545 
L 123.350392 95.842909 
L 123.699108 121.461677 
L 124.047823 122.024727 
L 124.396539 122.299602 
L 124.745255 92.249326 
L 125.093971 91.283886 
L 125.442687 94.982474 
L 125.791403 94.097455 
L 126.140119 94.097455 
L 126.837551 92.249326 
L 127.186267 92.249326 
L 127.534983 97.494015 
L 127.883699 97.494015 
L 128.232415 90.28919 
L 128.581131 89.263888 
L 128.929847 97.494015 
L 129.278563 112.504066 
L 130.32471 112.504066 
L 130.673426 112.948364 
L 131.022142 99.05822 
L 131.370858 99.05822 
L 131.719574 98.286545 
L 132.06829 87.115636 
L 132.417006 100.54221 
L 132.765722 97.494015 
L 133.114438 135.050507 
L 133.463154 117.307283 
L 133.81187 106.950347 
L 134.160586 100.54221 
L 134.509302 100.54221 
L 134.858018 85.989537 
L 135.206734 122.024727 
L 135.55545 106.375824 
L 135.904166 114.229493 
L 136.252882 156.933818 
L 136.601598 129.094923 
L 136.950313 135.266107 
L 137.299029 156.933818 
L 137.647745 141.224727 
L 137.996461 52.206545 
L 138.345177 110.63334 
L 138.693893 113.810824 
L 139.042609 88.206545 
L 139.391325 89.263888 
L 139.740041 88.206545 
L 140.437473 88.206545 
L 140.786189 112.504066 
L 141.134905 103.29302 
L 141.483621 97.494015 
L 141.832337 96.679771 
L 142.181053 97.494015 
L 142.529769 96.679771 
L 142.878485 122.024727 
L 143.2272 112.948364 
L 143.575916 112.948364 
L 143.924632 112.504066 
L 144.273348 111.115636 
L 144.622064 117.307283 
L 144.97078 113.383863 
L 145.668212 112.504066 
L 146.016928 112.504066 
L 146.365644 112.948364 
L 146.71436 112.504066 
L 147.063076 106.375824 
L 147.411792 106.950347 
L 147.760508 106.950347 
L 148.109224 121.173286 
L 148.45794 121.173286 
L 148.806656 96.679771 
L 149.155372 99.05822 
L 149.504087 89.263888 
L 149.852803 89.263888 
L 150.201519 101.256028 
L 150.550235 70.687829 
L 150.898951 105.787941 
L 151.247667 120.279273 
L 151.596383 120.279273 
L 151.945099 118.008637 
L 152.293815 125.0603 
L 152.642531 112.504066 
L 152.991247 112.504066 
L 153.339963 96.679771 
L 153.688679 97.494015 
L 154.037395 97.494015 
L 154.386111 98.286545 
L 154.734827 97.494015 
L 155.083543 97.494015 
L 155.432259 98.286545 
L 155.780975 87.115636 
L 156.12969 87.115636 
L 156.478406 99.05822 
L 156.827122 95.842909 
L 157.175838 91.283886 
L 157.87327 91.283886 
L 158.221986 96.679771 
L 158.919418 98.286545 
L 159.268134 117.307283 
L 159.61685 99.05822 
L 159.965566 99.05822 
L 160.314282 113.810824 
L 160.662998 106.375824 
L 161.011714 110.63334 
L 161.36043 111.115636 
L 161.709146 110.63334 
L 162.057862 118.008637 
L 162.406577 97.494015 
L 162.755293 105.787941 
L 163.104009 106.375824 
L 163.452725 106.375824 
L 163.801441 125.289606 
L 164.150157 89.263888 
L 164.498873 90.28919 
L 164.847589 97.494015 
L 165.196305 122.570182 
L 165.545021 125.515636 
L 165.893737 125.289606 
L 166.242453 91.283886 
L 166.591169 91.283886 
L 166.939885 120.279273 
L 167.288601 122.024727 
L 167.637317 112.504066 
L 167.986033 116.206545 
L 168.334749 122.024727 
L 168.683465 99.05822 
L 169.03218 98.286545 
L 169.380896 90.28919 
L 169.729612 125.0603 
L 170.078328 113.383863 
L 170.77576 156.933818 
L 171.124476 140.642909 
L 171.473192 49.652222 
L 171.821908 108.061091 
L 172.170624 111.587989 
L 172.51934 156.933818 
L 172.868056 140.703023 
L 173.216772 46.970182 
L 173.565488 107.511959 
L 173.914204 122.024727 
L 174.26292 124.352 
L 174.611636 118.350086 
L 174.960352 98.286545 
L 175.309067 98.286545 
L 175.657783 127.610182 
L 176.006499 127.610182 
L 176.355215 96.679771 
L 176.703931 97.494015 
L 177.052647 97.494015 
L 177.401363 84.826516 
L 177.750079 84.826516 
L 178.098795 70.687829 
L 178.447511 106.375824 
L 178.796227 112.504066 
L 179.144943 108.061091 
L 179.493659 107.511959 
L 179.842375 106.375824 
L 180.191091 106.375824 
L 180.539807 113.383863 
L 181.237239 113.383863 
L 181.585954 113.810824 
L 181.93467 112.504066 
L 182.283386 112.050701 
L 182.632102 106.950347 
L 182.980818 98.286545 
L 183.67825 98.286545 
L 184.026966 84.826516 
L 184.375682 96.679771 
L 184.724398 91.283886 
L 185.073114 96.679771 
L 185.770546 84.826516 
L 186.119262 85.989537 
L 186.467978 84.826516 
L 186.816694 99.05822 
L 187.16541 106.375824 
L 187.514126 99.05822 
L 187.862842 111.115636 
L 188.211557 113.383863 
L 188.560273 113.383863 
L 188.908989 52.206545 
L 189.257705 110.140781 
L 189.955137 110.140781 
L 190.303853 108.061091 
L 190.652569 108.598154 
L 191.001285 114.229493 
L 191.350001 111.587989 
L 191.698717 112.050701 
L 192.047433 117.307283 
L 192.396149 108.598154 
L 192.744865 121.745455 
L 193.442297 97.494015 
L 193.791013 98.286545 
L 194.139729 85.989537 
L 194.83716 88.206545 
L 195.185876 88.206545 
L 195.534592 84.826516 
L 195.883308 83.624727 
L 196.232024 119.015323 
L 196.58074 72.346406 
L 196.929456 112.504066 
L 197.278172 105.787941 
L 197.975604 105.787941 
L 198.32432 105.186225 
L 198.673036 122.570182 
L 199.021752 106.375824 
L 199.370468 118.008637 
L 199.719184 112.050701 
L 200.0679 127.01174 
L 200.416616 128.556106 
L 200.765332 121.461677 
L 201.114047 106.375824 
L 201.462763 114.229493 
L 201.811479 106.375824 
L 202.160195 112.948364 
L 202.508911 106.375824 
L 202.857627 91.283886 
L 203.206343 90.28919 
L 203.555059 96.679771 
L 203.903775 105.787941 
L 204.252491 93.186783 
L 204.601207 92.249326 
L 204.949923 92.249326 
L 205.298639 98.286545 
L 205.647355 109.123542 
L 205.996071 108.061091 
L 206.693503 89.263888 
L 207.042219 90.28919 
L 207.390934 125.0603 
L 207.73965 125.289606 
L 208.088366 108.598154 
L 208.437082 115.042909 
L 208.785798 97.494015 
L 209.134514 121.173286 
L 209.48323 88.206545 
L 209.831946 118.008637 
L 210.180662 113.383863 
L 210.529378 122.024727 
L 210.878094 122.024727 
L 211.22681 121.745455 
L 211.575526 122.024727 
L 211.924242 122.024727 
L 212.272958 118.685597 
L 212.621674 125.289606 
L 212.97039 125.289606 
L 213.319106 98.286545 
L 214.016537 85.989537 
L 214.365253 84.826516 
L 214.713969 120.880167 
L 215.062685 122.570182 
L 215.411401 122.299602 
L 215.760117 98.286545 
L 216.108833 93.186783 
L 216.457549 92.249326 
L 216.806265 92.249326 
L 217.154981 85.989537 
L 217.503697 83.624727 
L 217.852413 97.494015 
L 218.201129 105.787941 
L 218.549845 106.950347 
L 218.898561 106.950347 
L 219.247277 106.375824 
L 219.595993 97.494015 
L 219.944709 106.375824 
L 220.293424 106.375824 
L 220.64214 87.115636 
L 220.990856 112.504066 
L 221.339572 112.504066 
L 222.037004 111.587989 
L 222.734436 111.587989 
L 223.083152 121.461677 
L 223.431868 121.173286 
L 223.780584 106.950347 
L 224.1293 107.511959 
L 224.478016 106.950347 
L 224.826732 98.286545 
L 225.175448 98.286545 
L 225.87288 72.346406 
L 226.221596 75.479273 
L 226.570311 84.826516 
L 226.919027 84.826516 
L 227.267743 99.809851 
L 227.616459 99.809851 
L 227.965175 93.186783 
L 228.313891 98.286545 
L 228.662607 96.679771 
L 229.011323 98.286545 
L 229.360039 98.286545 
L 229.708755 97.494015 
L 230.057471 125.515636 
L 230.406187 85.989537 
L 231.103619 88.206545 
L 231.452335 90.28919 
L 231.801051 70.687829 
L 232.149767 121.173286 
L 232.847199 98.286545 
L 233.54463 99.809851 
L 233.893346 99.05822 
L 234.242062 105.787941 
L 234.590778 105.787941 
L 234.939494 98.286545 
L 235.28821 98.286545 
L 235.636926 99.05822 
L 235.985642 90.28919 
L 236.334358 91.283886 
L 236.683074 98.286545 
L 237.03179 98.286545 
L 237.380506 122.299602 
L 237.729222 122.570182 
L 238.077938 121.173286 
L 238.426654 121.745455 
L 238.77537 98.286545 
L 239.124086 90.28919 
L 239.472801 70.687829 
L 239.821517 83.624727 
L 240.170233 125.0603 
L 240.518949 124.827647 
L 240.867665 127.413379 
L 241.216381 118.350086 
L 241.565097 98.286545 
L 241.913813 113.383863 
L 242.959961 113.383863 
L 243.308677 90.28919 
L 243.657393 112.504066 
L 244.006109 112.948364 
L 244.703541 112.948364 
L 245.052257 122.299602 
L 245.400973 122.024727 
L 245.749689 112.948364 
L 246.098404 85.989537 
L 246.44712 87.115636 
L 246.795836 118.008637 
L 247.144552 118.350086 
L 247.493268 112.948364 
L 247.841984 112.948364 
L 248.539416 122.024727 
L 248.888132 122.299602 
L 249.236848 122.299602 
L 249.585564 98.286545 
L 249.93428 99.05822 
L 250.282996 100.54221 
L 250.631712 105.787941 
L 250.980428 105.787941 
L 251.329144 106.375824 
L 251.67786 105.787941 
L 252.026576 125.958146 
L 252.375291 108.598154 
L 252.724007 122.299602 
L 253.072723 102.630788 
L 253.421439 103.29302 
L 253.770155 104.570182 
L 254.118871 125.958146 
L 254.467587 106.375824 
L 254.816303 99.05822 
L 255.165019 84.826516 
L 256.908599 90.28919 
L 257.257315 89.263888 
L 257.606031 99.05822 
L 257.954747 113.383863 
L 258.303463 105.787941 
L 258.652178 105.787941 
L 259.000894 111.587989 
L 259.34961 89.263888 
L 259.698326 90.28919 
L 260.047042 97.494015 
L 260.744474 88.206545 
L 261.09319 85.989537 
L 261.441906 120.880167 
L 261.790622 120.880167 
L 262.139338 120.582203 
L 262.488054 117.661091 
L 262.83677 120.279273 
L 263.185486 120.582203 
L 263.534202 122.299602 
L 263.882918 122.570182 
L 264.231634 49.652222 
L 266.323929 49.652222 
L 266.672645 61.313265 
L 268.764941 61.313265 
L 269.113657 49.652222 
L 270.508521 49.652222 
L 270.857237 46.970182 
L 271.205953 61.313265 
L 275.73926 61.313265 
L 276.087976 112.948364 
L 276.436692 112.948364 
L 276.785408 113.383863 
L 277.134124 112.948364 
L 277.48284 87.115636 
L 277.831556 124.827647 
L 278.180271 122.024727 
L 278.528987 121.173286 
L 278.877703 120.880167 
L 279.226419 98.286545 
L 279.575135 93.186783 
L 279.923851 93.186783 
L 280.272567 125.0603 
L 280.621283 125.0603 
L 280.969999 122.570182 
L 281.318715 122.570182 
L 281.667431 125.0603 
L 282.016147 108.598154 
L 282.364863 107.511959 
L 282.713579 98.286545 
L 283.062295 98.286545 
L 283.411011 106.375824 
L 283.759727 106.950347 
L 284.108443 106.375824 
L 284.457158 106.950347 
L 284.805874 65.297455 
L 285.15459 106.950347 
L 285.503306 49.652222 
L 285.852022 52.206545 
L 286.200738 107.511959 
L 286.549454 68.962909 
L 286.89817 70.687829 
L 287.246886 70.687829 
L 287.595602 93.186783 
L 287.944318 93.186783 
L 288.293034 94.097455 
L 288.64175 89.263888 
L 289.339182 89.263888 
L 289.687898 90.28919 
L 290.036614 98.286545 
L 290.38533 116.947041 
L 290.734046 113.810824 
L 291.082761 97.494015 
L 292.128909 97.494015 
L 292.477625 98.286545 
L 292.826341 105.787941 
L 293.175057 106.375824 
L 293.523773 105.787941 
L 293.872489 98.286545 
L 294.221205 87.115636 
L 294.569921 87.115636 
L 294.918637 99.809851 
L 295.267353 99.809851 
L 295.616069 94.097455 
L 295.964785 125.0603 
L 296.313501 122.570182 
L 296.662217 97.494015 
L 297.010933 90.28919 
L 297.359648 98.286545 
L 297.708364 98.286545 
L 298.05708 121.461677 
L 298.405796 106.375824 
L 298.754512 106.375824 
L 299.103228 106.950347 
L 299.80066 106.950347 
L 300.149376 108.061091 
L 300.498092 122.024727 
L 300.846808 122.024727 
L 301.195524 125.0603 
L 301.54424 125.289606 
L 301.892956 99.05822 
L 302.241672 97.494015 
L 302.590388 98.286545 
L 302.939104 122.299602 
L 303.28782 99.05822 
L 303.636535 122.570182 
L 303.985251 122.570182 
L 304.333967 123.611504 
L 304.682683 121.173286 
L 305.031399 121.173286 
L 305.380115 121.745455 
L 306.077547 101.256028 
L 306.426263 112.504066 
L 306.774979 113.383863 
L 307.123695 113.383863 
L 307.472411 106.950347 
L 307.821127 108.598154 
L 308.169843 109.63763 
L 308.518559 46.970182 
L 318.980037 46.970182 
L 320.026185 121.745455 
L 320.374901 117.661091 
L 320.723617 117.661091 
L 321.421049 115.825917 
L 321.769765 112.948364 
L 322.118481 113.383863 
L 322.467197 116.947041 
L 322.815913 109.63763 
L 323.164628 120.279273 
L 323.513344 114.640112 
L 323.86206 114.640112 
L 324.210776 112.504066 
L 324.559492 112.948364 
L 324.908208 108.598154 
L 325.256924 119.971251 
L 325.60564 99.809851 
L 325.954356 92.249326 
L 326.303072 99.05822 
L 326.651788 99.05822 
L 327.000504 100.54221 
L 327.34922 116.206545 
L 327.697936 110.63334 
L 328.395368 46.970182 
L 336.415834 46.970182 
L 336.76455 90.28919 
L 337.113266 101.256028 
L 337.461982 101.256028 
L 337.810698 115.042909 
L 338.159414 89.263888 
L 339.205562 89.263888 
L 339.554278 120.582203 
L 339.902994 116.58019 
L 340.25171 99.05822 
L 340.600426 92.249326 
L 340.949142 93.186783 
L 341.297858 92.249326 
L 341.646574 101.952 
L 341.99529 105.787941 
L 342.344005 105.787941 
L 342.692721 109.123542 
L 343.041437 108.598154 
L 343.390153 98.286545 
L 344.436301 98.286545 
L 344.785017 99.809851 
L 345.482449 46.970182 
L 347.574745 46.970182 
L 347.923461 73.942395 
L 348.272177 73.942395 
L 348.620892 46.970182 
L 351.061904 46.970182 
L 351.41062 73.942395 
L 352.108052 73.942395 
L 352.456768 46.970182 
L 354.200348 46.970182 
L 354.549064 73.942395 
L 355.246495 73.942395 
L 355.595211 91.283886 
L 355.943927 91.283886 
L 356.292643 89.263888 
L 356.641359 89.263888 
L 356.990075 88.206545 
L 357.338791 89.263888 
L 357.687507 91.283886 
L 358.036223 91.283886 
L 358.384939 100.54221 
L 358.733655 127.610182 
L 359.082371 125.289606 
L 359.431087 125.515636 
L 359.779803 127.213916 
L 360.128519 90.28919 
L 360.477235 124.827647 
L 360.825951 112.948364 
L 361.174667 112.948364 
L 361.523382 70.687829 
L 361.872098 72.346406 
L 362.220814 110.140781 
L 362.56953 110.140781 
L 362.918246 109.63763 
L 363.266962 109.63763 
L 363.615678 100.54221 
L 363.964394 100.54221 
L 364.31311 90.28919 
L 364.661826 90.28919 
L 365.010542 89.263888 
L 365.359258 100.54221 
L 365.707974 101.256028 
L 366.05669 91.283886 
L 366.405406 91.283886 
L 366.754122 73.942395 
L 367.102838 73.942395 
L 367.451554 46.970182 
L 370.938713 46.970182 
L 371.287429 73.942395 
L 371.636145 90.28919 
L 371.984861 90.28919 
L 372.333577 101.256028 
L 372.682293 101.256028 
L 373.031009 109.63763 
L 373.379725 100.54221 
L 373.728441 100.54221 
L 374.077157 99.809851 
L 374.425872 99.809851 
L 374.774588 107.511959 
L 375.123304 106.375824 
L 375.47202 113.383863 
L 375.820736 99.809851 
L 376.169452 99.809851 
L 376.518168 90.28919 
L 376.866884 90.28919 
L 377.2156 99.05822 
L 377.564316 98.286545 
L 377.913032 89.263888 
L 378.261748 98.286545 
L 378.610464 89.263888 
L 378.95918 90.28919 
L 379.307896 90.28919 
L 379.656612 73.942395 
L 380.005328 73.942395 
L 380.354044 90.28919 
L 381.400191 90.28919 
L 381.748907 73.942395 
L 382.097623 72.346406 
L 382.446339 90.28919 
L 383.492487 90.28919 
L 383.841203 89.263888 
L 384.189919 124.827647 
L 384.538635 112.050701 
L 384.887351 121.173286 
L 385.236067 112.948364 
L 385.584783 121.461677 
L 385.933499 122.024727 
L 386.282215 122.024727 
L 386.630931 90.28919 
L 386.979647 89.263888 
L 387.328362 89.263888 
L 387.677078 111.587989 
L 388.025794 112.050701 
L 388.37451 112.050701 
L 388.723226 103.29302 
L 389.071942 101.256028 
L 389.420658 101.256028 
L 390.466806 99.05822 
L 391.164238 99.05822 
L 391.512954 98.286545 
L 392.210386 117.661091 
L 392.559102 113.383863 
L 392.907818 112.948364 
L 393.256534 122.299602 
L 393.605249 100.54221 
L 393.953965 122.299602 
L 394.302681 100.54221 
L 394.651397 120.880167 
L 395.000113 120.880167 
L 395.348829 97.494015 
L 395.697545 106.950347 
L 396.046261 106.950347 
L 396.394977 122.299602 
L 396.743693 122.299602 
L 397.092409 122.570182 
L 397.441125 99.809851 
L 397.789841 100.54221 
L 398.138557 100.54221 
L 398.487273 99.809851 
L 398.487273 99.809851 
" style="fill:none;stroke:#1f77b4;stroke-linecap:square;stroke-width:1.5;"/>
   </g>
   <g id="patch_3">
    <path d="M 57.6 162.432 
L 57.6 41.472 
" style="fill:none;stroke:#000000;stroke-linecap:square;stroke-linejoin:miter;stroke-width:0.8;"/>
   </g>
   <g id="patch_4">
    <path d="M 414.72 162.432 
L 414.72 41.472 
" style="fill:none;stroke:#000000;stroke-linecap:square;stroke-linejoin:miter;stroke-width:0.8;"/>
   </g>
   <g id="patch_5">
    <path d="M 57.6 162.432 
L 414.72 162.432 
" style="fill:none;stroke:#000000;stroke-linecap:square;stroke-linejoin:miter;stroke-width:0.8;"/>
   </g>
   <g id="patch_6">
    <path d="M 57.6 41.472 
L 414.72 41.472 
" style="fill:none;stroke:#000000;stroke-linecap:square;stroke-linejoin:miter;stroke-width:0.8;"/>
   </g>
   <g id="text_15">
    <!-- F0 -->
    <g transform="translate(228.891562 35.472)scale(0.12 -0.12)">
     <use xlink:href="#DejaVuSans-46"/>
     <use x="57.519531" xlink:href="#DejaVuSans-30"/>
    </g>
   </g>
  </g>
  <g id="axes_2">
   <g id="patch_7">
    <path d="M 57.6 307.584 
L 414.72 307.584 
L 414.72 186.624 
L 57.6 186.624 
z
" style="fill:#ffffff;"/>
   </g>
   <g id="matplotlib.axis_3">
    <g id="xtick_9">
     <g id="line2d_15">
      <g>
       <use style="stroke:#000000;stroke-width:0.8;" x="73.832727" xlink:href="#m94f1f4b924" y="307.584"/>
      </g>
     </g>
     <g id="text_16">
      <!-- 0 -->
      <g transform="translate(70.651477 322.182437)scale(0.1 -0.1)">
       <use xlink:href="#DejaVuSans-30"/>
      </g>
     </g>
    </g>
    <g id="xtick_10">
     <g id="line2d_16">
      <g>
       <use style="stroke:#000000;stroke-width:0.8;" x="117.235941" xlink:href="#m94f1f4b924" y="307.584"/>
      </g>
     </g>
     <g id="text_17">
      <!-- 2 -->
      <g transform="translate(114.054691 322.182437)scale(0.1 -0.1)">
       <use xlink:href="#DejaVuSans-32"/>
      </g>
     </g>
    </g>
    <g id="xtick_11">
     <g id="line2d_17">
      <g>
       <use style="stroke:#000000;stroke-width:0.8;" x="160.639154" xlink:href="#m94f1f4b924" y="307.584"/>
      </g>
     </g>
     <g id="text_18">
      <!-- 4 -->
      <g transform="translate(157.457904 322.182437)scale(0.1 -0.1)">
       <use xlink:href="#DejaVuSans-34"/>
      </g>
     </g>
    </g>
    <g id="xtick_12">
     <g id="line2d_18">
      <g>
       <use style="stroke:#000000;stroke-width:0.8;" x="204.042367" xlink:href="#m94f1f4b924" y="307.584"/>
      </g>
     </g>
     <g id="text_19">
      <!-- 6 -->
      <g transform="translate(200.861117 322.182437)scale(0.1 -0.1)">
       <use xlink:href="#DejaVuSans-36"/>
      </g>
     </g>
    </g>
    <g id="xtick_13">
     <g id="line2d_19">
      <g>
       <use style="stroke:#000000;stroke-width:0.8;" x="247.445581" xlink:href="#m94f1f4b924" y="307.584"/>
      </g>
     </g>
     <g id="text_20">
      <!-- 8 -->
      <g transform="translate(244.264331 322.182437)scale(0.1 -0.1)">
       <use xlink:href="#DejaVuSans-38"/>
      </g>
     </g>
    </g>
    <g id="xtick_14">
     <g id="line2d_20">
      <g>
       <use style="stroke:#000000;stroke-width:0.8;" x="290.848794" xlink:href="#m94f1f4b924" y="307.584"/>
      </g>
     </g>
     <g id="text_21">
      <!-- 10 -->
      <g transform="translate(284.486294 322.182437)scale(0.1 -0.1)">
       <use xlink:href="#DejaVuSans-31"/>
       <use x="63.623047" xlink:href="#DejaVuSans-30"/>
      </g>
     </g>
    </g>
    <g id="xtick_15">
     <g id="line2d_21">
      <g>
       <use style="stroke:#000000;stroke-width:0.8;" x="334.252007" xlink:href="#m94f1f4b924" y="307.584"/>
      </g>
     </g>
     <g id="text_22">
      <!-- 12 -->
      <g transform="translate(327.889507 322.182437)scale(0.1 -0.1)">
       <use xlink:href="#DejaVuSans-31"/>
       <use x="63.623047" xlink:href="#DejaVuSans-32"/>
      </g>
     </g>
    </g>
    <g id="xtick_16">
     <g id="line2d_22">
      <g>
       <use style="stroke:#000000;stroke-width:0.8;" x="377.655221" xlink:href="#m94f1f4b924" y="307.584"/>
      </g>
     </g>
     <g id="text_23">
      <!-- 14 -->
      <g transform="translate(371.292721 322.182437)scale(0.1 -0.1)">
       <use xlink:href="#DejaVuSans-31"/>
       <use x="63.623047" xlink:href="#DejaVuSans-34"/>
      </g>
     </g>
    </g>
    <g id="text_24">
     <!-- Time (seconds) -->
     <g transform="translate(197.998281 335.860562)scale(0.1 -0.1)">
      <defs>
       <path d="M -19 4666 
L 3928 4666 
L 3928 4134 
L 2272 4134 
L 2272 0 
L 1638 0 
L 1638 4134 
L -19 4134 
L -19 4666 
z
" id="DejaVuSans-54" transform="scale(0.015625)"/>
       <path d="M 603 3500 
L 1178 3500 
L 1178 0 
L 603 0 
L 603 3500 
z
M 603 4863 
L 1178 4863 
L 1178 4134 
L 603 4134 
L 603 4863 
z
" id="DejaVuSans-69" transform="scale(0.015625)"/>
       <path d="M 3328 2828 
Q 3544 3216 3844 3400 
Q 4144 3584 4550 3584 
Q 5097 3584 5394 3201 
Q 5691 2819 5691 2113 
L 5691 0 
L 5113 0 
L 5113 2094 
Q 5113 2597 4934 2840 
Q 4756 3084 4391 3084 
Q 3944 3084 3684 2787 
Q 3425 2491 3425 1978 
L 3425 0 
L 2847 0 
L 2847 2094 
Q 2847 2600 2669 2842 
Q 2491 3084 2119 3084 
Q 1678 3084 1418 2786 
Q 1159 2488 1159 1978 
L 1159 0 
L 581 0 
L 581 3500 
L 1159 3500 
L 1159 2956 
Q 1356 3278 1631 3431 
Q 1906 3584 2284 3584 
Q 2666 3584 2933 3390 
Q 3200 3197 3328 2828 
z
" id="DejaVuSans-6d" transform="scale(0.015625)"/>
       <path d="M 2834 3397 
L 2834 2853 
Q 2591 2978 2328 3040 
Q 2066 3103 1784 3103 
Q 1356 3103 1142 2972 
Q 928 2841 928 2578 
Q 928 2378 1081 2264 
Q 1234 2150 1697 2047 
L 1894 2003 
Q 2506 1872 2764 1633 
Q 3022 1394 3022 966 
Q 3022 478 2636 193 
Q 2250 -91 1575 -91 
Q 1294 -91 989 -36 
Q 684 19 347 128 
L 347 722 
Q 666 556 975 473 
Q 1284 391 1588 391 
Q 1994 391 2212 530 
Q 2431 669 2431 922 
Q 2431 1156 2273 1281 
Q 2116 1406 1581 1522 
L 1381 1569 
Q 847 1681 609 1914 
Q 372 2147 372 2553 
Q 372 3047 722 3315 
Q 1072 3584 1716 3584 
Q 2034 3584 2315 3537 
Q 2597 3491 2834 3397 
z
" id="DejaVuSans-73" transform="scale(0.015625)"/>
       <path d="M 1959 3097 
Q 1497 3097 1228 2736 
Q 959 2375 959 1747 
Q 959 1119 1226 758 
Q 1494 397 1959 397 
Q 2419 397 2687 759 
Q 2956 1122 2956 1747 
Q 2956 2369 2687 2733 
Q 2419 3097 1959 3097 
z
M 1959 3584 
Q 2709 3584 3137 3096 
Q 3566 2609 3566 1747 
Q 3566 888 3137 398 
Q 2709 -91 1959 -91 
Q 1206 -91 779 398 
Q 353 888 353 1747 
Q 353 2609 779 3096 
Q 1206 3584 1959 3584 
z
" id="DejaVuSans-6f" transform="scale(0.015625)"/>
       <path d="M 2906 2969 
L 2906 4863 
L 3481 4863 
L 3481 0 
L 2906 0 
L 2906 525 
Q 2725 213 2448 61 
Q 2172 -91 1784 -91 
Q 1150 -91 751 415 
Q 353 922 353 1747 
Q 353 2572 751 3078 
Q 1150 3584 1784 3584 
Q 2172 3584 2448 3432 
Q 2725 3281 2906 2969 
z
M 947 1747 
Q 947 1113 1208 752 
Q 1469 391 1925 391 
Q 2381 391 2643 752 
Q 2906 1113 2906 1747 
Q 2906 2381 2643 2742 
Q 2381 3103 1925 3103 
Q 1469 3103 1208 2742 
Q 947 2381 947 1747 
z
" id="DejaVuSans-64" transform="scale(0.015625)"/>
      </defs>
      <use xlink:href="#DejaVuSans-54"/>
      <use x="57.958984" xlink:href="#DejaVuSans-69"/>
      <use x="85.742188" xlink:href="#DejaVuSans-6d"/>
      <use x="183.154297" xlink:href="#DejaVuSans-65"/>
      <use x="244.677734" xlink:href="#DejaVuSans-20"/>
      <use x="276.464844" xlink:href="#DejaVuSans-28"/>
      <use x="315.478516" xlink:href="#DejaVuSans-73"/>
      <use x="367.578125" xlink:href="#DejaVuSans-65"/>
      <use x="429.101562" xlink:href="#DejaVuSans-63"/>
      <use x="484.082031" xlink:href="#DejaVuSans-6f"/>
      <use x="545.263672" xlink:href="#DejaVuSans-6e"/>
      <use x="608.642578" xlink:href="#DejaVuSans-64"/>
      <use x="672.119141" xlink:href="#DejaVuSans-73"/>
      <use x="724.21875" xlink:href="#DejaVuSans-29"/>
     </g>
    </g>
   </g>
   <g id="matplotlib.axis_4">
    <g id="ytick_6">
     <g id="line2d_23">
      <g>
       <use style="stroke:#000000;stroke-width:0.8;" x="57.6" xlink:href="#m5afc3cb951" y="302.085818"/>
      </g>
     </g>
     <g id="text_25">
      <!-- 0 -->
      <g transform="translate(44.2375 305.885037)scale(0.1 -0.1)">
       <use xlink:href="#DejaVuSans-30"/>
      </g>
     </g>
    </g>
    <g id="ytick_7">
     <g id="line2d_24">
      <g>
       <use style="stroke:#000000;stroke-width:0.8;" x="57.6" xlink:href="#m5afc3cb951" y="269.096727"/>
      </g>
     </g>
     <g id="text_26">
      <!-- 100 -->
      <g transform="translate(31.5125 272.895946)scale(0.1 -0.1)">
       <use xlink:href="#DejaVuSans-31"/>
       <use x="63.623047" xlink:href="#DejaVuSans-30"/>
       <use x="127.246094" xlink:href="#DejaVuSans-30"/>
      </g>
     </g>
    </g>
    <g id="ytick_8">
     <g id="line2d_25">
      <g>
       <use style="stroke:#000000;stroke-width:0.8;" x="57.6" xlink:href="#m5afc3cb951" y="236.107636"/>
      </g>
     </g>
     <g id="text_27">
      <!-- 200 -->
      <g transform="translate(31.5125 239.906855)scale(0.1 -0.1)">
       <use xlink:href="#DejaVuSans-32"/>
       <use x="63.623047" xlink:href="#DejaVuSans-30"/>
       <use x="127.246094" xlink:href="#DejaVuSans-30"/>
      </g>
     </g>
    </g>
    <g id="ytick_9">
     <g id="line2d_26">
      <g>
       <use style="stroke:#000000;stroke-width:0.8;" x="57.6" xlink:href="#m5afc3cb951" y="203.118545"/>
      </g>
     </g>
     <g id="text_28">
      <!-- 300 -->
      <g transform="translate(31.5125 206.917764)scale(0.1 -0.1)">
       <use xlink:href="#DejaVuSans-33"/>
       <use x="63.623047" xlink:href="#DejaVuSans-30"/>
       <use x="127.246094" xlink:href="#DejaVuSans-30"/>
      </g>
     </g>
    </g>
    <g id="text_29">
     <!-- Frequency (Hz) -->
     <g transform="translate(25.432812 284.808687)rotate(-90)scale(0.1 -0.1)">
      <use xlink:href="#DejaVuSans-46"/>
      <use x="50.269531" xlink:href="#DejaVuSans-72"/>
      <use x="89.132812" xlink:href="#DejaVuSans-65"/>
      <use x="150.65625" xlink:href="#DejaVuSans-71"/>
      <use x="214.132812" xlink:href="#DejaVuSans-75"/>
      <use x="277.511719" xlink:href="#DejaVuSans-65"/>
      <use x="339.035156" xlink:href="#DejaVuSans-6e"/>
      <use x="402.414062" xlink:href="#DejaVuSans-63"/>
      <use x="457.394531" xlink:href="#DejaVuSans-79"/>
      <use x="516.574219" xlink:href="#DejaVuSans-20"/>
      <use x="548.361328" xlink:href="#DejaVuSans-28"/>
      <use x="587.375" xlink:href="#DejaVuSans-48"/>
      <use x="662.570312" xlink:href="#DejaVuSans-7a"/>
      <use x="715.060547" xlink:href="#DejaVuSans-29"/>
     </g>
    </g>
   </g>
   <g id="line2d_27">
    <path clip-path="url(#p881c254694)" d="M 73.832727 247.670823 
L 74.181443 274.878321 
L 75.576307 274.878321 
L 75.925023 192.122182 
L 76.273739 192.122182 
L 76.622455 265.684063 
L 76.971171 265.684063 
L 77.319887 265.431273 
L 77.668603 265.431273 
L 78.017319 265.174947 
L 78.366035 265.431273 
L 78.714751 265.93339 
L 79.063466 265.93339 
L 79.412182 266.179325 
L 81.853194 266.179325 
L 82.20191 284.432793 
L 82.550626 284.313917 
L 82.899342 284.373555 
L 83.248058 284.19343 
L 83.596774 283.630383 
L 83.94549 283.565627 
L 84.294206 283.630383 
L 84.642922 282.680471 
L 84.991638 282.680471 
L 85.340353 247.670823 
L 85.689069 283.099291 
L 86.037785 276.212021 
L 86.386501 284.432793 
L 86.735217 284.432793 
L 87.083933 283.234909 
L 87.432649 282.751552 
L 87.781365 266.421936 
L 88.130081 278.73071 
L 88.478797 285.222385 
L 88.827513 285.27609 
L 89.176229 260.524759 
L 89.524945 261.793799 
L 89.873661 278.522182 
L 90.222377 277.188391 
L 90.571093 277.188391 
L 90.919809 284.432793 
L 91.268525 284.432793 
L 91.617241 285.168336 
L 91.965956 285.27609 
L 92.314672 285.059191 
L 92.663388 285.059191 
L 93.012104 283.500415 
L 93.36082 284.19343 
L 93.709536 279.529175 
L 94.755684 279.720333 
L 95.1044 279.720333 
L 95.453116 284.432793 
L 95.801832 285.435173 
L 96.150548 284.491636 
L 96.499264 284.313917 
L 96.84798 284.432793 
L 97.196696 284.432793 
L 97.545412 284.948628 
L 97.894128 279.814702 
L 98.242843 283.368603 
L 98.591559 283.88494 
L 98.940275 283.88494 
L 99.288991 284.432793 
L 99.637707 284.432793 
L 99.986423 280.9728 
L 100.335139 284.608154 
L 100.683855 284.491636 
L 101.032571 276.831012 
L 101.381287 283.368603 
L 101.730003 283.434742 
L 102.078719 283.368603 
L 102.427435 264.384 
L 102.776151 263.837597 
L 103.124867 278.093752 
L 103.473583 263.837597 
L 103.822299 263.837597 
L 104.171015 265.93339 
L 104.868446 265.93339 
L 105.565878 284.432793 
L 105.914594 264.384 
L 106.612026 264.384 
L 106.960742 284.009604 
L 107.309458 278.833596 
L 107.658174 278.416515 
L 108.00689 283.500415 
L 108.355606 284.253877 
L 108.704322 276.951273 
L 109.053038 284.313917 
L 109.401754 284.313917 
L 109.75047 285.168336 
L 110.099186 285.168336 
L 110.447902 278.73071 
L 110.796618 278.626909 
L 111.145333 284.373555 
L 111.842765 284.253877 
L 112.191481 278.833596 
L 112.540197 283.630383 
L 112.888913 278.416515 
L 113.237629 278.522182 
L 113.586345 279.720333 
L 113.935061 282.608864 
L 114.283777 282.608864 
L 114.632493 285.113939 
L 114.981209 285.487533 
L 115.329925 284.071298 
L 115.678641 283.565627 
L 116.027357 284.550089 
L 116.724789 284.373555 
L 117.073505 278.093752 
L 117.42222 265.431273 
L 117.770936 276.951273 
L 118.119652 283.821962 
L 118.468368 283.821962 
L 118.817084 283.947486 
L 119.1658 278.522182 
L 119.514516 278.626909 
L 119.863232 259.859782 
L 120.211948 260.194909 
L 120.560664 283.758545 
L 120.90938 278.522182 
L 121.258096 278.626909 
L 121.606812 283.758545 
L 121.955528 277.984199 
L 122.304244 283.821962 
L 122.65296 278.309897 
L 123.001676 283.565627 
L 123.350392 278.309897 
L 123.699108 264.384 
L 124.047823 278.626909 
L 124.396539 264.384 
L 124.745255 264.384 
L 125.093971 265.93339 
L 125.442687 278.626909 
L 125.791403 284.373555 
L 126.488835 284.313917 
L 126.837551 284.313917 
L 127.186267 277.649455 
L 127.534983 277.873641 
L 127.883699 278.416515 
L 128.232415 278.522182 
L 128.581131 266.421936 
L 128.929847 282.016409 
L 129.278563 254.101686 
L 129.627279 284.432793 
L 129.975995 284.432793 
L 130.32471 284.313917 
L 130.673426 278.093752 
L 131.022142 278.202313 
L 131.370858 278.522182 
L 131.719574 278.309897 
L 132.06829 278.522182 
L 132.417006 278.935579 
L 132.765722 283.630383 
L 133.114438 277.30528 
L 133.463154 277.188391 
L 133.81187 281.862621 
L 134.160586 271.751022 
L 134.509302 273.859858 
L 134.858018 279.814702 
L 135.206734 279.814702 
L 135.55545 302.085818 
L 136.601598 302.085818 
L 136.950313 283.030748 
L 137.299029 302.085818 
L 137.996461 302.085818 
L 138.345177 263.837597 
L 138.693893 264.384 
L 139.042609 283.565627 
L 139.391325 278.202313 
L 139.740041 283.500415 
L 140.088757 284.432793 
L 140.437473 281.305288 
L 140.786189 280.888009 
L 141.134905 276.084564 
L 141.483621 278.522182 
L 141.832337 282.751552 
L 142.181053 282.751552 
L 142.529769 275.561926 
L 142.878485 284.491636 
L 143.924632 284.608154 
L 144.273348 278.416515 
L 144.622064 279.814702 
L 144.97078 278.522182 
L 145.319496 278.416515 
L 145.668212 285.168336 
L 146.016928 278.416515 
L 146.365644 285.222385 
L 146.71436 254.533975 
L 147.063076 285.168336 
L 147.411792 285.168336 
L 147.760508 278.626909 
L 148.109224 263.558413 
L 148.806656 264.112764 
L 149.155372 284.892807 
L 149.504087 284.83662 
L 149.852803 284.432793 
L 150.201519 284.432793 
L 150.550235 283.565627 
L 150.898951 283.565627 
L 151.247667 284.491636 
L 151.596383 284.432793 
L 151.945099 285.329455 
L 152.293815 263.837597 
L 152.642531 282.608864 
L 152.991247 282.680471 
L 153.339963 279.720333 
L 153.688679 284.550089 
L 154.037395 266.661291 
L 154.386111 278.626909 
L 154.734827 278.522182 
L 155.083543 278.626909 
L 155.432259 284.491636 
L 155.780975 283.694687 
L 156.12969 283.630383 
L 156.478406 284.432793 
L 157.175838 284.373555 
L 157.524554 283.694687 
L 157.87327 278.626909 
L 158.221986 229.780961 
L 158.570702 284.491636 
L 158.919418 281.140364 
L 159.268134 280.716367 
L 159.61685 278.935579 
L 159.965566 282.961708 
L 160.314282 266.661291 
L 160.662998 278.522182 
L 161.011714 279.432365 
L 161.36043 279.529175 
L 161.709146 284.432793 
L 162.057862 284.491636 
L 162.406577 284.432793 
L 162.755293 278.522182 
L 163.104009 284.432793 
L 164.150157 284.491636 
L 164.498873 264.651389 
L 164.847589 263.837597 
L 165.196305 264.915012 
L 165.545021 278.416515 
L 165.893737 264.112764 
L 166.242453 277.649455 
L 166.591169 282.892165 
L 166.939885 275.427967 
L 167.288601 260.194909 
L 167.637317 260.194909 
L 167.986033 259.859782 
L 168.334749 280.9728 
L 168.683465 284.550089 
L 169.03218 284.608154 
L 169.380896 264.112764 
L 169.729612 263.837597 
L 170.078328 279.814702 
L 170.427044 282.751552 
L 170.77576 302.085818 
L 171.124476 285.004088 
L 171.473192 302.085818 
L 171.821908 284.491636 
L 172.170624 302.085818 
L 173.216772 302.085818 
L 173.565488 285.329455 
L 173.914204 274.158545 
L 174.26292 285.487533 
L 174.611636 285.113939 
L 174.960352 285.113939 
L 175.309067 266.897455 
L 175.657783 283.694687 
L 176.006499 283.500415 
L 176.355215 284.608154 
L 176.703931 284.432793 
L 177.052647 262.987636 
L 177.401363 283.821962 
L 177.750079 263.837597 
L 178.098795 283.88494 
L 178.447511 285.222385 
L 178.796227 285.113939 
L 179.144943 277.30528 
L 179.493659 285.168336 
L 179.842375 285.168336 
L 180.191091 284.373555 
L 180.539807 281.056916 
L 180.888523 279.908278 
L 181.237239 280.001071 
L 181.93467 278.522182 
L 182.283386 284.550089 
L 182.632102 284.491636 
L 182.980818 284.550089 
L 183.329534 277.421077 
L 184.026966 277.188391 
L 184.375682 277.30528 
L 184.724398 283.500415 
L 185.073114 277.421077 
L 185.42183 278.416515 
L 185.770546 278.416515 
L 186.119262 278.626909 
L 186.467978 285.113939 
L 186.816694 284.432793 
L 187.16541 279.814702 
L 187.514126 277.188391 
L 187.862842 302.085818 
L 188.560273 302.085818 
L 188.908989 260.524759 
L 189.257705 302.085818 
L 189.606421 302.085818 
L 190.303853 253.661465 
L 190.652569 255.78534 
L 191.001285 284.432793 
L 191.350001 254.533975 
L 191.698717 260.194909 
L 192.047433 254.533975 
L 192.396149 254.533975 
L 192.744865 285.113939 
L 193.093581 279.814702 
L 193.442297 280.888009 
L 193.791013 284.253877 
L 194.139729 284.253877 
L 194.488444 284.550089 
L 194.83716 283.099291 
L 195.185876 283.565627 
L 195.534592 282.822115 
L 195.883308 275.427967 
L 196.58074 284.432793 
L 196.929456 284.432793 
L 197.278172 278.73071 
L 197.626888 285.382481 
L 197.975604 284.432793 
L 198.32432 284.313917 
L 198.673036 283.694687 
L 199.021752 283.694687 
L 199.370468 280.716367 
L 199.719184 280.629499 
L 200.0679 284.313917 
L 200.416616 284.432793 
L 200.765332 284.373555 
L 201.114047 278.833596 
L 201.462763 278.833596 
L 201.811479 278.522182 
L 202.160195 282.822115 
L 202.508911 283.167343 
L 202.857627 283.167343 
L 203.555059 285.059191 
L 203.903775 279.625161 
L 204.252491 284.550089 
L 204.949923 284.432793 
L 205.298639 264.915012 
L 205.647355 279.814702 
L 205.996071 284.491636 
L 206.344787 284.491636 
L 206.693503 266.421936 
L 207.042219 284.432793 
L 207.73965 284.432793 
L 208.088366 285.435173 
L 208.437082 284.608154 
L 208.785798 285.004088 
L 209.134514 276.338235 
L 209.48323 284.313917 
L 209.831946 260.194909 
L 210.180662 284.373555 
L 210.529378 284.373555 
L 210.878094 260.194909 
L 211.22681 259.859782 
L 211.575526 260.194909 
L 211.924242 260.194909 
L 212.272958 283.630383 
L 212.621674 284.432793 
L 212.97039 266.661291 
L 213.319106 283.758545 
L 213.667822 283.565627 
L 214.016537 285.059191 
L 214.365253 280.9728 
L 214.713969 280.9728 
L 215.062685 260.849455 
L 215.411401 284.491636 
L 215.760117 279.814702 
L 216.108833 279.814702 
L 216.457549 266.421936 
L 216.806265 283.565627 
L 217.154981 283.434742 
L 217.503697 264.651389 
L 217.852413 282.608864 
L 218.201129 281.056916 
L 218.549845 284.665836 
L 218.898561 284.313917 
L 219.944709 284.491636 
L 220.293424 283.630383 
L 220.64214 277.188391 
L 220.990856 277.188391 
L 221.339572 254.533975 
L 221.688288 254.101686 
L 222.037004 259.859782 
L 222.38572 259.859782 
L 222.734436 278.522182 
L 223.083152 283.030748 
L 223.431868 283.099291 
L 223.780584 278.093752 
L 224.1293 277.421077 
L 224.478016 278.416515 
L 224.826732 277.30528 
L 225.175448 278.416515 
L 225.524164 278.522182 
L 225.87288 278.416515 
L 226.221596 283.630383 
L 226.570311 284.491636 
L 226.919027 282.822115 
L 227.616459 282.822115 
L 227.965175 283.368603 
L 228.313891 282.892165 
L 229.011323 282.892165 
L 229.360039 283.630383 
L 229.708755 283.368603 
L 230.057471 283.758545 
L 230.754903 283.694687 
L 231.103619 284.373555 
L 231.452335 284.432793 
L 231.801051 283.434742 
L 232.149767 282.892165 
L 232.498483 282.892165 
L 232.847199 275.694545 
L 233.54463 275.694545 
L 233.893346 282.892165 
L 234.242062 282.822115 
L 234.939494 285.004088 
L 235.28821 285.059191 
L 235.636926 277.535797 
L 235.985642 283.500415 
L 236.334358 283.630383 
L 236.683074 284.432793 
L 237.03179 283.565627 
L 237.380506 278.416515 
L 237.729222 285.539566 
L 238.077938 283.630383 
L 238.426654 284.432793 
L 238.77537 283.694687 
L 239.124086 278.522182 
L 239.472801 283.630383 
L 239.821517 284.491636 
L 240.170233 284.491636 
L 240.518949 285.487533 
L 240.867665 270.096397 
L 241.216381 279.908278 
L 241.565097 278.833596 
L 241.913813 285.539566 
L 242.611245 284.550089 
L 243.308677 284.491636 
L 243.657393 276.587004 
L 244.006109 278.416515 
L 244.354825 278.309897 
L 244.703541 278.935579 
L 245.052257 284.432793 
L 245.400973 284.491636 
L 245.749689 284.432793 
L 246.098404 285.222385 
L 246.795836 281.862621 
L 247.144552 281.939808 
L 247.493268 281.305288 
L 247.841984 264.384 
L 248.1907 285.168336 
L 248.539416 284.491636 
L 248.888132 284.432793 
L 249.236848 283.694687 
L 249.585564 283.758545 
L 249.93428 284.373555 
L 250.282996 278.626909 
L 250.631712 284.313917 
L 250.980428 284.373555 
L 251.329144 284.313917 
L 251.67786 277.070394 
L 252.026576 276.951273 
L 252.375291 283.500415 
L 252.724007 283.434742 
L 253.072723 277.649455 
L 253.421439 284.373555 
L 253.770155 284.432793 
L 254.118871 264.915012 
L 254.467587 264.915012 
L 254.816303 284.432793 
L 255.165019 278.416515 
L 255.513735 278.522182 
L 255.862451 277.070394 
L 256.211167 277.070394 
L 256.559883 278.093752 
L 256.908599 277.984199 
L 257.257315 278.202313 
L 257.606031 276.709594 
L 257.954747 277.070394 
L 258.652178 284.550089 
L 259.000894 283.694687 
L 259.698326 283.758545 
L 260.047042 284.373555 
L 260.395758 283.821962 
L 260.744474 277.984199 
L 261.09319 277.30528 
L 261.441906 277.188391 
L 261.790622 284.313917 
L 262.139338 284.665836 
L 262.488054 282.751552 
L 263.185486 282.822115 
L 263.534202 283.434742 
L 263.882918 260.849455 
L 264.231634 302.085818 
L 275.73926 302.085818 
L 276.087976 275.825845 
L 276.436692 275.955845 
L 276.785408 279.334721 
L 277.134124 284.373555 
L 277.48284 284.373555 
L 277.831556 263.558413 
L 278.180271 263.275123 
L 278.528987 263.275123 
L 278.877703 281.056916 
L 279.226419 280.364606 
L 279.575135 283.500415 
L 280.969999 283.434742 
L 281.318715 283.758545 
L 282.016147 283.030748 
L 282.364863 279.908278 
L 282.713579 284.373555 
L 283.062295 284.313917 
L 283.411011 264.112764 
L 283.759727 278.626909 
L 284.108443 279.814702 
L 284.457158 263.558413 
L 284.805874 283.565627 
L 285.15459 283.565627 
L 285.503306 279.814702 
L 285.852022 279.720333 
L 286.200738 283.434742 
L 286.89817 283.368603 
L 287.595602 283.434742 
L 287.944318 283.434742 
L 288.293034 233.537058 
L 288.64175 278.202313 
L 288.990466 266.661291 
L 289.339182 283.565627 
L 289.687898 278.626909 
L 290.036614 285.168336 
L 290.38533 254.101686 
L 290.734046 284.313917 
L 291.082761 268.250853 
L 291.431477 266.661291 
L 291.780193 230.758054 
L 292.128909 264.384 
L 292.477625 263.837597 
L 292.826341 279.908278 
L 293.175057 279.908278 
L 293.523773 278.73071 
L 293.872489 284.313917 
L 294.221205 284.313917 
L 294.569921 283.565627 
L 294.918637 283.694687 
L 295.267353 278.522182 
L 295.616069 278.309897 
L 295.964785 283.565627 
L 296.313501 267.811438 
L 296.662217 283.434742 
L 297.010933 284.313917 
L 297.359648 284.432793 
L 298.05708 284.432793 
L 298.405796 282.680471 
L 298.754512 259.17318 
L 299.103228 259.17318 
L 299.451944 278.522182 
L 299.80066 278.626909 
L 300.149376 284.432793 
L 300.498092 284.432793 
L 300.846808 283.630383 
L 301.195524 283.565627 
L 301.54424 284.665836 
L 301.892956 284.723139 
L 302.241672 278.73071 
L 302.590388 267.587422 
L 302.939104 283.234909 
L 303.28782 278.626909 
L 303.636535 278.626909 
L 304.333967 279.432365 
L 304.682683 285.059191 
L 305.031399 266.897455 
L 305.380115 267.13049 
L 305.728831 285.539566 
L 306.077547 281.386781 
L 306.426263 254.533975 
L 307.123695 254.533975 
L 307.472411 276.951273 
L 307.821127 280.001071 
L 308.169843 277.070394 
L 308.867275 284.723139 
L 309.215991 281.056916 
L 309.564707 252.290964 
L 309.913423 252.290964 
L 310.262138 282.167877 
L 310.610854 265.93339 
L 310.95957 284.009604 
L 311.308286 277.188391 
L 311.657002 277.188391 
L 312.005718 278.626909 
L 312.354434 277.188391 
L 312.70315 283.947486 
L 313.051866 278.626909 
L 314.44673 278.626909 
L 314.795446 277.188391 
L 315.144162 278.626909 
L 315.492878 245.330393 
L 315.841594 279.908278 
L 316.19031 245.330393 
L 316.539025 278.626909 
L 319.328753 278.626909 
L 319.677469 283.88494 
L 320.026185 284.491636 
L 320.374901 259.859782 
L 320.723617 259.859782 
L 321.072333 258.821437 
L 321.421049 260.194909 
L 321.769765 281.939808 
L 322.118481 259.859782 
L 322.467197 259.17318 
L 322.815913 262.399694 
L 323.164628 284.780066 
L 323.513344 261.793799 
L 323.86206 261.48386 
L 324.210776 279.720333 
L 324.559492 280.802534 
L 324.908208 254.958545 
L 325.256924 278.73071 
L 325.60564 265.684063 
L 325.954356 266.421936 
L 326.303072 266.421936 
L 326.651788 284.313917 
L 327.000504 284.313917 
L 327.34922 284.432793 
L 327.697936 285.222385 
L 328.046652 279.908278 
L 328.395368 257.730738 
L 328.744084 278.626909 
L 329.441515 278.626909 
L 329.790231 279.908278 
L 330.138947 262.099041 
L 330.487663 262.099041 
L 330.836379 283.947486 
L 331.185095 279.908278 
L 331.533811 265.93339 
L 331.882527 283.099291 
L 332.231243 277.188391 
L 332.579959 265.93339 
L 332.928675 283.947486 
L 333.277391 278.626909 
L 333.626107 252.290964 
L 333.974823 278.626909 
L 334.672255 278.626909 
L 335.020971 281.056916 
L 335.369687 257.730738 
L 335.718402 275.427967 
L 336.067118 283.947486 
L 336.415834 265.684063 
L 337.113266 265.684063 
L 337.461982 278.522182 
L 337.810698 262.099041 
L 338.159414 281.862621 
L 338.50813 281.939808 
L 338.856846 276.951273 
L 339.205562 283.947486 
L 339.554278 285.382481 
L 339.902994 285.382481 
L 340.25171 277.188391 
L 340.600426 277.070394 
L 340.949142 277.188391 
L 341.297858 277.188391 
L 341.646574 283.167343 
L 341.99529 283.167343 
L 342.344005 247.104 
L 342.692721 278.626909 
L 343.041437 285.168336 
L 343.390153 285.27609 
L 343.738869 278.522182 
L 344.087585 284.550089 
L 344.436301 263.558413 
L 344.785017 283.694687 
L 345.133733 275.427967 
L 345.482449 283.099291 
L 345.831165 283.030748 
L 346.179881 265.684063 
L 346.528597 283.947486 
L 346.877313 265.684063 
L 347.226029 265.93339 
L 347.574745 278.626909 
L 349.318324 278.626909 
L 350.364472 268.889249 
L 350.713188 283.099291 
L 351.061904 277.188391 
L 351.759336 277.188391 
L 352.108052 283.947486 
L 352.456768 284.723139 
L 352.805484 268.889249 
L 353.1542 283.947486 
L 353.502916 278.522182 
L 354.200348 278.626909 
L 354.549064 279.908278 
L 354.89778 278.626909 
L 355.246495 278.626909 
L 355.595211 283.434742 
L 355.943927 283.434742 
L 356.292643 262.987636 
L 356.641359 262.987636 
L 356.990075 277.762065 
L 357.338791 278.626909 
L 357.687507 278.522182 
L 358.036223 278.626909 
L 358.384939 281.056916 
L 358.733655 281.140364 
L 359.082371 284.432793 
L 359.431087 284.373555 
L 359.779803 283.434742 
L 360.128519 282.822115 
L 360.477235 275.694545 
L 360.825951 275.825845 
L 361.174667 279.814702 
L 361.523382 266.897455 
L 361.872098 266.661291 
L 362.220814 275.561926 
L 362.56953 278.309897 
L 362.918246 283.88494 
L 363.615678 283.88494 
L 363.964394 279.814702 
L 364.31311 284.608154 
L 364.661826 278.522182 
L 365.010542 278.522182 
L 365.359258 280.9728 
L 365.707974 245.330393 
L 366.05669 278.626909 
L 366.405406 278.626909 
L 366.754122 235.27247 
L 367.102838 235.27247 
L 367.451554 252.290964 
L 367.80027 278.626909 
L 368.846417 278.626909 
L 369.195133 283.947486 
L 370.241281 283.947486 
L 370.589997 279.908278 
L 370.938713 285.435173 
L 371.287429 268.889249 
L 371.636145 268.889249 
L 371.984861 278.626909 
L 372.333577 278.626909 
L 372.682293 269.096727 
L 373.031009 285.487533 
L 373.379725 268.889249 
L 373.728441 268.466362 
L 374.077157 283.434742 
L 374.425872 266.661291 
L 374.774588 275.427967 
L 375.123304 279.625161 
L 375.47202 278.73071 
L 375.820736 276.951273 
L 376.169452 283.099291 
L 376.518168 233.537058 
L 376.866884 283.030748 
L 377.2156 275.825845 
L 377.564316 283.694687 
L 377.913032 284.373555 
L 378.261748 278.522182 
L 378.610464 263.558413 
L 378.95918 265.431273 
L 379.307896 234.415888 
L 379.656612 234.415888 
L 380.005328 235.27247 
L 380.354044 283.030748 
L 380.702759 278.522182 
L 382.446339 278.522182 
L 382.795055 277.188391 
L 383.143771 277.30528 
L 383.492487 284.780066 
L 384.538635 282.608864 
L 384.887351 284.83662 
L 385.236067 271.398292 
L 385.584783 278.522182 
L 386.282215 278.626909 
L 386.630931 275.825845 
L 386.979647 277.649455 
L 387.328362 277.649455 
L 387.677078 279.720333 
L 388.025794 280.888009 
L 388.37451 281.056916 
L 388.723226 281.056916 
L 389.071942 283.099291 
L 389.420658 266.421936 
L 389.769374 266.421936 
L 390.11809 266.179325 
L 390.466806 278.416515 
L 390.815522 278.416515 
L 391.164238 284.550089 
L 391.512954 285.382481 
L 391.86167 277.070394 
L 392.210386 254.958545 
L 392.559102 280.9728 
L 392.907818 284.432793 
L 393.256534 284.432793 
L 393.605249 278.626909 
L 394.302681 278.626909 
L 394.651397 283.500415 
L 395.000113 276.951273 
L 395.348829 277.070394 
L 395.697545 284.432793 
L 396.046261 284.373555 
L 396.743693 284.432793 
L 397.092409 284.373555 
L 397.441125 283.301994 
L 397.789841 283.301994 
L 398.138557 279.908278 
L 398.487273 284.491636 
L 398.487273 284.491636 
" style="fill:none;stroke:#1f77b4;stroke-linecap:square;stroke-width:1.5;"/>
   </g>
   <g id="patch_8">
    <path d="M 57.6 307.584 
L 57.6 186.624 
" style="fill:none;stroke:#000000;stroke-linecap:square;stroke-linejoin:miter;stroke-width:0.8;"/>
   </g>
   <g id="patch_9">
    <path d="M 414.72 307.584 
L 414.72 186.624 
" style="fill:none;stroke:#000000;stroke-linecap:square;stroke-linejoin:miter;stroke-width:0.8;"/>
   </g>
   <g id="patch_10">
    <path d="M 57.6 307.584 
L 414.72 307.584 
" style="fill:none;stroke:#000000;stroke-linecap:square;stroke-linejoin:miter;stroke-width:0.8;"/>
   </g>
   <g id="patch_11">
    <path d="M 57.6 186.624 
L 414.72 186.624 
" style="fill:none;stroke:#000000;stroke-linecap:square;stroke-linejoin:miter;stroke-width:0.8;"/>
   </g>
   <g id="text_30">
    <!-- Index of minimums of CMND -->
    <g transform="translate(150.373125 180.624)scale(0.12 -0.12)">
     <defs>
      <path d="M 628 4666 
L 1259 4666 
L 1259 0 
L 628 0 
L 628 4666 
z
" id="DejaVuSans-49" transform="scale(0.015625)"/>
      <path d="M 3513 3500 
L 2247 1797 
L 3578 0 
L 2900 0 
L 1881 1375 
L 863 0 
L 184 0 
L 1544 1831 
L 300 3500 
L 978 3500 
L 1906 2253 
L 2834 3500 
L 3513 3500 
z
" id="DejaVuSans-78" transform="scale(0.015625)"/>
      <path d="M 2375 4863 
L 2375 4384 
L 1825 4384 
Q 1516 4384 1395 4259 
Q 1275 4134 1275 3809 
L 1275 3500 
L 2222 3500 
L 2222 3053 
L 1275 3053 
L 1275 0 
L 697 0 
L 697 3053 
L 147 3053 
L 147 3500 
L 697 3500 
L 697 3744 
Q 697 4328 969 4595 
Q 1241 4863 1831 4863 
L 2375 4863 
z
" id="DejaVuSans-66" transform="scale(0.015625)"/>
      <path d="M 4122 4306 
L 4122 3641 
Q 3803 3938 3442 4084 
Q 3081 4231 2675 4231 
Q 1875 4231 1450 3742 
Q 1025 3253 1025 2328 
Q 1025 1406 1450 917 
Q 1875 428 2675 428 
Q 3081 428 3442 575 
Q 3803 722 4122 1019 
L 4122 359 
Q 3791 134 3420 21 
Q 3050 -91 2638 -91 
Q 1578 -91 968 557 
Q 359 1206 359 2328 
Q 359 3453 968 4101 
Q 1578 4750 2638 4750 
Q 3056 4750 3426 4639 
Q 3797 4528 4122 4306 
z
" id="DejaVuSans-43" transform="scale(0.015625)"/>
      <path d="M 628 4666 
L 1569 4666 
L 2759 1491 
L 3956 4666 
L 4897 4666 
L 4897 0 
L 4281 0 
L 4281 4097 
L 3078 897 
L 2444 897 
L 1241 4097 
L 1241 0 
L 628 0 
L 628 4666 
z
" id="DejaVuSans-4d" transform="scale(0.015625)"/>
      <path d="M 628 4666 
L 1478 4666 
L 3547 763 
L 3547 4666 
L 4159 4666 
L 4159 0 
L 3309 0 
L 1241 3903 
L 1241 0 
L 628 0 
L 628 4666 
z
" id="DejaVuSans-4e" transform="scale(0.015625)"/>
      <path d="M 1259 4147 
L 1259 519 
L 2022 519 
Q 2988 519 3436 956 
Q 3884 1394 3884 2338 
Q 3884 3275 3436 3711 
Q 2988 4147 2022 4147 
L 1259 4147 
z
M 628 4666 
L 1925 4666 
Q 3281 4666 3915 4102 
Q 4550 3538 4550 2338 
Q 4550 1131 3912 565 
Q 3275 0 1925 0 
L 628 0 
L 628 4666 
z
" id="DejaVuSans-44" transform="scale(0.015625)"/>
     </defs>
     <use xlink:href="#DejaVuSans-49"/>
     <use x="29.492188" xlink:href="#DejaVuSans-6e"/>
     <use x="92.871094" xlink:href="#DejaVuSans-64"/>
     <use x="156.347656" xlink:href="#DejaVuSans-65"/>
     <use x="216.121094" xlink:href="#DejaVuSans-78"/>
     <use x="275.300781" xlink:href="#DejaVuSans-20"/>
     <use x="307.087891" xlink:href="#DejaVuSans-6f"/>
     <use x="368.269531" xlink:href="#DejaVuSans-66"/>
     <use x="403.474609" xlink:href="#DejaVuSans-20"/>
     <use x="435.261719" xlink:href="#DejaVuSans-6d"/>
     <use x="532.673828" xlink:href="#DejaVuSans-69"/>
     <use x="560.457031" xlink:href="#DejaVuSans-6e"/>
     <use x="623.835938" xlink:href="#DejaVuSans-69"/>
     <use x="651.619141" xlink:href="#DejaVuSans-6d"/>
     <use x="749.03125" xlink:href="#DejaVuSans-75"/>
     <use x="812.410156" xlink:href="#DejaVuSans-6d"/>
     <use x="909.822266" xlink:href="#DejaVuSans-73"/>
     <use x="961.921875" xlink:href="#DejaVuSans-20"/>
     <use x="993.708984" xlink:href="#DejaVuSans-6f"/>
     <use x="1054.890625" xlink:href="#DejaVuSans-66"/>
     <use x="1090.095703" xlink:href="#DejaVuSans-20"/>
     <use x="1121.882812" xlink:href="#DejaVuSans-43"/>
     <use x="1191.707031" xlink:href="#DejaVuSans-4d"/>
     <use x="1277.986328" xlink:href="#DejaVuSans-4e"/>
     <use x="1352.791016" xlink:href="#DejaVuSans-44"/>
    </g>
   </g>
  </g>
 </g>
 <defs>
  <clipPath id="p43ebc360be">
   <rect height="120.96" width="357.12" x="57.6" y="41.472"/>
  </clipPath>
  <clipPath id="p881c254694">
   <rect height="120.96" width="357.12" x="57.6" y="186.624"/>
  </clipPath>
 </defs>
</svg>
